<svg
                  className="m-auto"
                  width="25"
                  height="24"
                  viewBox="0 0 25 24"
                  fill="none"
                  xmlns="http://www.w3.org/2000/svg"
                >
                  <mask id="path-1-inside-1_17_93" fill="white">
                    <path d="M3.5 12H9.5C9.76522 12 10.0196 11.8946 10.2071 11.7071C10.3946 11.5196 10.5 11.2652 10.5 11V5C10.5 4.73478 10.3946 4.48043 10.2071 4.29289C10.0196 4.10536 9.76522 4 9.5 4H3.5C3.23478 4 2.98043 4.10536 2.79289 4.29289C2.60536 4.48043 2.5 4.73478 2.5 5V11C2.5 11.2652 2.60536 11.5196 2.79289 11.7071C2.98043 11.8946 3.23478 12 3.5 12ZM4.5 6H8.5V10H4.5V6ZM13.5 8H21.5C21.7652 8 22.0196 7.89464 22.2071 7.70711C22.3946 7.51957 22.5 7.26522 22.5 7C22.5 6.73478 22.3946 6.48043 22.2071 6.29289C22.0196 6.10536 21.7652 6 21.5 6H13.5C13.2348 6 12.9804 6.10536 12.7929 6.29289C12.6054 6.48043 12.5 6.73478 12.5 7C12.5 7.26522 12.6054 7.51957 12.7929 7.70711C12.9804 7.89464 13.2348 8 13.5 8V8ZM13.5 18H3.5C3.23478 18 2.98043 18.1054 2.79289 18.2929C2.60536 18.4804 2.5 18.7348 2.5 19C2.5 19.2652 2.60536 19.5196 2.79289 19.7071C2.98043 19.8946 3.23478 20 3.5 20H13.5C13.7652 20 14.0196 19.8946 14.2071 19.7071C14.3946 19.5196 14.5 19.2652 14.5 19C14.5 18.7348 14.3946 18.4804 14.2071 18.2929C14.0196 18.1054 13.7652 18 13.5 18ZM21.5 14H3.5C3.23478 14 2.98043 14.1054 2.79289 14.2929C2.60536 14.4804 2.5 14.7348 2.5 15C2.5 15.2652 2.60536 15.5196 2.79289 15.7071C2.98043 15.8946 3.23478 16 3.5 16H21.5C21.7652 16 22.0196 15.8946 22.2071 15.7071C22.3946 15.5196 22.5 15.2652 22.5 15C22.5 14.7348 22.3946 14.4804 22.2071 14.2929C22.0196 14.1054 21.7652 14 21.5 14ZM21.5 10H13.5C13.2348 10 12.9804 10.1054 12.7929 10.2929C12.6054 10.4804 12.5 10.7348 12.5 11C12.5 11.2652 12.6054 11.5196 12.7929 11.7071C12.9804 11.8946 13.2348 12 13.5 12H21.5C21.7652 12 22.0196 11.8946 22.2071 11.7071C22.3946 11.5196 22.5 11.2652 22.5 11C22.5 10.7348 22.3946 10.4804 22.2071 10.2929C22.0196 10.1054 21.7652 10 21.5 10Z" />
                  </mask>
                  <path
                    d="M3.5 12H9.5C9.76522 12 10.0196 11.8946 10.2071 11.7071C10.3946 11.5196 10.5 11.2652 10.5 11V5C10.5 4.73478 10.3946 4.48043 10.2071 4.29289C10.0196 4.10536 9.76522 4 9.5 4H3.5C3.23478 4 2.98043 4.10536 2.79289 4.29289C2.60536 4.48043 2.5 4.73478 2.5 5V11C2.5 11.2652 2.60536 11.5196 2.79289 11.7071C2.98043 11.8946 3.23478 12 3.5 12ZM4.5 6H8.5V10H4.5V6ZM13.5 8H21.5C21.7652 8 22.0196 7.89464 22.2071 7.70711C22.3946 7.51957 22.5 7.26522 22.5 7C22.5 6.73478 22.3946 6.48043 22.2071 6.29289C22.0196 6.10536 21.7652 6 21.5 6H13.5C13.2348 6 12.9804 6.10536 12.7929 6.29289C12.6054 6.48043 12.5 6.73478 12.5 7C12.5 7.26522 12.6054 7.51957 12.7929 7.70711C12.9804 7.89464 13.2348 8 13.5 8V8ZM13.5 18H3.5C3.23478 18 2.98043 18.1054 2.79289 18.2929C2.60536 18.4804 2.5 18.7348 2.5 19C2.5 19.2652 2.60536 19.5196 2.79289 19.7071C2.98043 19.8946 3.23478 20 3.5 20H13.5C13.7652 20 14.0196 19.8946 14.2071 19.7071C14.3946 19.5196 14.5 19.2652 14.5 19C14.5 18.7348 14.3946 18.4804 14.2071 18.2929C14.0196 18.1054 13.7652 18 13.5 18ZM21.5 14H3.5C3.23478 14 2.98043 14.1054 2.79289 14.2929C2.60536 14.4804 2.5 14.7348 2.5 15C2.5 15.2652 2.60536 15.5196 2.79289 15.7071C2.98043 15.8946 3.23478 16 3.5 16H21.5C21.7652 16 22.0196 15.8946 22.2071 15.7071C22.3946 15.5196 22.5 15.2652 22.5 15C22.5 14.7348 22.3946 14.4804 22.2071 14.2929C22.0196 14.1054 21.7652 14 21.5 14ZM21.5 10H13.5C13.2348 10 12.9804 10.1054 12.7929 10.2929C12.6054 10.4804 12.5 10.7348 12.5 11C12.5 11.2652 12.6054 11.5196 12.7929 11.7071C12.9804 11.8946 13.2348 12 13.5 12H21.5C21.7652 12 22.0196 11.8946 22.2071 11.7071C22.3946 11.5196 22.5 11.2652 22.5 11C22.5 10.7348 22.3946 10.4804 22.2071 10.2929C22.0196 10.1054 21.7652 10 21.5 10Z"
                    fill="white"
                  />
                  <path
                    d="M9.5 4V1.9V4ZM2.5 5H0.4H2.5ZM2.5 11H0.4H2.5ZM4.5 6V3.9H2.4V6H4.5ZM8.5 6H10.6V3.9H8.5V6ZM8.5 10V12.1H10.6V10H8.5ZM4.5 10H2.4V12.1H4.5V10ZM2.5 19H0.4H2.5ZM2.5 15H0.4H2.5ZM3.5 14.1H9.5V9.9H3.5V14.1ZM9.5 14.1C10.3222 14.1 11.1107 13.7734 11.692 13.192L8.72218 10.2222C8.92847 10.0159 9.20826 9.9 9.5 9.9V14.1ZM11.692 13.192C12.2734 12.6107 12.6 11.8222 12.6 11H8.4C8.4 10.7083 8.51589 10.4285 8.72218 10.2222L11.692 13.192ZM12.6 11V5H8.4V11H12.6ZM12.6 5C12.6 4.17783 12.2734 3.38933 11.692 2.80797L8.72218 5.77782C8.51589 5.57153 8.4 5.29174 8.4 5H12.6ZM11.692 2.80797C11.1107 2.22661 10.3222 1.9 9.5 1.9V6.1C9.20826 6.1 8.92847 5.98411 8.72218 5.77782L11.692 2.80797ZM9.5 1.9H3.5V6.1H9.5V1.9ZM3.5 1.9C2.67783 1.9 1.88933 2.22661 1.30797 2.80797L4.27782 5.77782C4.07153 5.98411 3.79174 6.1 3.5 6.1V1.9ZM1.30797 2.80797C0.726606 3.38933 0.4 4.17783 0.4 5H4.6C4.6 5.29174 4.48411 5.57153 4.27782 5.77782L1.30797 2.80797ZM0.4 5V11H4.6V5H0.4ZM0.4 11C0.4 11.8222 0.726606 12.6107 1.30797 13.192L4.27782 10.2222C4.48411 10.4285 4.6 10.7083 4.6 11H0.4ZM1.30797 13.192C1.88933 13.7734 2.67783 14.1 3.5 14.1V9.9C3.79174 9.9 4.07153 10.0159 4.27782 10.2222L1.30797 13.192ZM4.5 8.1H8.5V3.9H4.5V8.1ZM6.4 6V10H10.6V6H6.4ZM8.5 7.9H4.5V12.1H8.5V7.9ZM6.6 10V6H2.4V10H6.6ZM13.5 10.1H21.5V5.9H13.5V10.1ZM21.5 10.1C22.3222 10.1 23.1107 9.77339 23.692 9.19203L20.7222 6.22218C20.9285 6.01589 21.2083 5.9 21.5 5.9V10.1ZM23.692 9.19203C24.2734 8.61067 24.6 7.82217 24.6 7H20.4C20.4 6.70827 20.5159 6.42847 20.7222 6.22218L23.692 9.19203ZM24.6 7C24.6 6.17783 24.2734 5.38933 23.692 4.80797L20.7222 7.77782C20.5159 7.57152 20.4 7.29173 20.4 7H24.6ZM23.692 4.80797C23.1107 4.22661 22.3222 3.9 21.5 3.9V8.1C21.2083 8.1 20.9285 7.98411 20.7222 7.77782L23.692 4.80797ZM21.5 3.9H13.5V8.1H21.5V3.9ZM13.5 3.9C12.6778 3.9 11.8893 4.22661 11.308 4.80797L14.2778 7.77782C14.0715 7.98411 13.7917 8.1 13.5 8.1V3.9ZM11.308 4.80797C10.7266 5.38933 10.4 6.17783 10.4 7H14.6C14.6 7.29174 14.4841 7.57153 14.2778 7.77782L11.308 4.80797ZM10.4 7C10.4 7.82217 10.7266 8.61067 11.308 9.19203L14.2778 6.22218C14.4841 6.42847 14.6 6.70826 14.6 7H10.4ZM11.308 9.19203C11.8893 9.77339 12.6778 10.1 13.5 10.1V5.9C13.7917 5.9 14.0715 6.01589 14.2778 6.22218L11.308 9.19203ZM13.5 15.9H3.5V20.1H13.5V15.9ZM3.5 15.9C2.67783 15.9 1.88933 16.2266 1.30797 16.808L4.27782 19.7778C4.07152 19.9841 3.79173 20.1 3.5 20.1V15.9ZM1.30797 16.808C0.726605 17.3893 0.4 18.1778 0.4 19H4.6C4.6 19.2917 4.48411 19.5715 4.27782 19.7778L1.30797 16.808ZM0.4 19C0.4 19.8222 0.726605 20.6107 1.30797 21.192L4.27782 18.2222C4.48411 18.4285 4.6 18.7083 4.6 19H0.4ZM1.30797 21.192C1.88933 21.7734 2.67783 22.1 3.5 22.1V17.9C3.79173 17.9 4.07152 18.0159 4.27782 18.2222L1.30797 21.192ZM3.5 22.1H13.5V17.9H3.5V22.1ZM13.5 22.1C14.3222 22.1 15.1107 21.7734 15.692 21.192L12.7222 18.2222C12.9285 18.0159 13.2083 17.9 13.5 17.9V22.1ZM15.692 21.192C16.2734 20.6107 16.6 19.8222 16.6 19H12.4C12.4 18.7083 12.5159 18.4285 12.7222 18.2222L15.692 21.192ZM16.6 19C16.6 18.1778 16.2734 17.3893 15.692 16.808L12.7222 19.7778C12.5159 19.5715 12.4 19.2917 12.4 19H16.6ZM15.692 16.808C15.1107 16.2266 14.3222 15.9 13.5 15.9V20.1C13.2083 20.1 12.9285 19.9841 12.7222 19.7778L15.692 16.808ZM21.5 11.9H3.5V16.1H21.5V11.9ZM3.5 11.9C2.67783 11.9 1.88933 12.2266 1.30797 12.808L4.27782 15.7778C4.07153 15.9841 3.79174 16.1 3.5 16.1V11.9ZM1.30797 12.808C0.726606 13.3893 0.4 14.1778 0.4 15H4.6C4.6 15.2917 4.48411 15.5715 4.27782 15.7778L1.30797 12.808ZM0.4 15C0.4 15.8222 0.726606 16.6107 1.30797 17.192L4.27782 14.2222C4.48411 14.4285 4.6 14.7083 4.6 15H0.4ZM1.30797 17.192C1.88933 17.7734 2.67783 18.1 3.5 18.1V13.9C3.79174 13.9 4.07153 14.0159 4.27782 14.2222L1.30797 17.192ZM3.5 18.1H21.5V13.9H3.5V18.1ZM21.5 18.1C22.3222 18.1 23.1107 17.7734 23.692 17.192L20.7222 14.2222C20.9285 14.0159 21.2083 13.9 21.5 13.9V18.1ZM23.692 17.192C24.2734 16.6107 24.6 15.8222 24.6 15H20.4C20.4 14.7083 20.5159 14.4285 20.7222 14.2222L23.692 17.192ZM24.6 15C24.6 14.1778 24.2734 13.3893 23.692 12.808L20.7222 15.7778C20.5159 15.5715 20.4 15.2917 20.4 15H24.6ZM23.692 12.808C23.1107 12.2266 22.3222 11.9 21.5 11.9V16.1C21.2083 16.1 20.9285 15.9841 20.7222 15.7778L23.692 12.808ZM21.5 7.9H13.5V12.1H21.5V7.9ZM13.5 7.9C12.6778 7.9 11.8893 8.22661 11.308 8.80797L14.2778 11.7778C14.0715 11.9841 13.7917 12.1 13.5 12.1V7.9ZM11.308 8.80797C10.7266 9.38933 10.4 10.1778 10.4 11H14.6C14.6 11.2917 14.4841 11.5715 14.2778 11.7778L11.308 8.80797ZM10.4 11C10.4 11.8222 10.7266 12.6107 11.308 13.192L14.2778 10.2222C14.4841 10.4285 14.6 10.7083 14.6 11H10.4ZM11.308 13.192C11.8893 13.7734 12.6778 14.1 13.5 14.1V9.9C13.7917 9.9 14.0715 10.0159 14.2778 10.2222L11.308 13.192ZM13.5 14.1H21.5V9.9H13.5V14.1ZM21.5 14.1C22.3222 14.1 23.1107 13.7734 23.692 13.192L20.7222 10.2222C20.9285 10.0159 21.2083 9.9 21.5 9.9V14.1ZM23.692 13.192C24.2734 12.6107 24.6 11.8222 24.6 11H20.4C20.4 10.7083 20.5159 10.4285 20.7222 10.2222L23.692 13.192ZM24.6 11C24.6 10.1778 24.2734 9.38933 23.692 8.80797L20.7222 11.7778C20.5159 11.5715 20.4 11.2917 20.4 11H24.6ZM23.692 8.80797C23.1107 8.22661 22.3222 7.9 21.5 7.9V12.1C21.2083 12.1 20.9285 11.9841 20.7222 11.7778L23.692 8.80797Z"
                    fill="white"
                    mask="url(#path-1-inside-1_17_93)"
                  />
                </svg>