<svg width="14" height="14" viewBox="0 0 14 14" fill="none" xmlns="http://www.w3.org/2000/svg"><mask id="path-1-inside-1_58_1232" fill="white"><path d="M10.3308 6.58583C10.2766 6.53116 10.2121 6.48776 10.141 6.45815C10.0699 6.42853 9.99368 6.41328 9.91667 6.41328C9.83966 6.41328 9.76342 6.42853 9.69234 6.45815C9.62125 6.48776 9.55673 6.53116 9.50251 6.58583L7.58334 8.51083V4.08333C7.58334 3.92862 7.52188 3.78025 7.41248 3.67085C7.30309 3.56146 7.15472 3.5 7.00001 3.5C6.8453 3.5 6.69692 3.56146 6.58753 3.67085C6.47813 3.78025 6.41667 3.92862 6.41667 4.08333V8.51083L4.49751 6.58583C4.38766 6.47599 4.23868 6.41428 4.08334 6.41428C3.928 6.41428 3.77902 6.47599 3.66917 6.58583C3.55933 6.69568 3.49762 6.84466 3.49762 7C3.49762 7.15534 3.55933 7.30432 3.66917 7.41417L6.58584 10.3308C6.64132 10.3839 6.70673 10.4256 6.77834 10.4533C6.84816 10.4842 6.92366 10.5001 7.00001 10.5001C7.07635 10.5001 7.15185 10.4842 7.22167 10.4533C7.29328 10.4256 7.3587 10.3839 7.41417 10.3308L10.3308 7.41417C10.3855 7.35994 10.4289 7.29542 10.4585 7.22434C10.4881 7.15325 10.5034 7.07701 10.5034 7C10.5034 6.92299 10.4881 6.84675 10.4585 6.77566C10.4289 6.70458 10.3855 6.64006 10.3308 6.58583Z"></path></mask><path d="M10.3308 6.58583L9.46106 7.44851L9.46819 7.45558L10.3308 6.58583ZM9.91667 6.41328V5.18828V6.41328ZM9.50251 6.58583L10.37 7.45073L10.3723 7.44848L9.50251 6.58583ZM7.58334 8.51083H6.35834V11.4746L8.45086 9.37572L7.58334 8.51083ZM6.41667 8.51083L5.54915 9.37572L7.64167 11.4746V8.51083H6.41667ZM4.49751 6.58583L5.36503 5.72094L5.36371 5.71963L4.49751 6.58583ZM3.66917 7.41417L2.80297 8.28037H2.80297L3.66917 7.41417ZM6.58584 10.3308L5.71963 11.197L5.72909 11.2065L5.73874 11.2157L6.58584 10.3308ZM6.77834 10.4533L7.27355 9.33289L7.24762 9.32143L7.22119 9.31118L6.77834 10.4533ZM7.22167 10.4533L6.77883 9.31118L6.75239 9.32143L6.72646 9.33289L7.22167 10.4533ZM7.41417 10.3308L8.26127 11.2157L8.27093 11.2065L8.28038 11.197L7.41417 10.3308ZM10.3308 7.41417L9.46818 6.54441L9.46463 6.54796L10.3308 7.41417ZM11.2006 5.72319C11.0325 5.5537 10.8325 5.41917 10.6121 5.32736L9.6699 7.58894C9.59171 7.55636 9.52074 7.50862 9.46109 7.44848L11.2006 5.72319ZM10.6121 5.32736C10.3918 5.23555 10.1554 5.18828 9.91667 5.18828V7.63828C9.83196 7.63828 9.74809 7.62151 9.6699 7.58894L10.6121 5.32736ZM9.91667 5.18828C9.67795 5.18828 9.44159 5.23555 9.22123 5.32736L10.1634 7.58894C10.0852 7.62151 10.0014 7.63828 9.91667 7.63828V5.18828ZM9.22123 5.32736C9.00086 5.41917 8.80086 5.5537 8.63276 5.72319L10.3723 7.44848C10.3126 7.50862 10.2416 7.55636 10.1634 7.58894L9.22123 5.32736ZM8.63499 5.72094L6.71582 7.64594L8.45086 9.37572L10.37 7.45072L8.63499 5.72094ZM8.80834 8.51083V4.08333H6.35834V8.51083H8.80834ZM8.80834 4.08333C8.80834 3.60373 8.61782 3.14378 8.27869 2.80465L6.54628 4.53706C6.42594 4.41672 6.35834 4.25351 6.35834 4.08333H8.80834ZM8.27869 2.80465C7.93956 2.46552 7.47961 2.275 7.00001 2.275V4.725C6.82982 4.725 6.66661 4.6574 6.54628 4.53706L8.27869 2.80465ZM7.00001 2.275C6.52041 2.275 6.06045 2.46552 5.72132 2.80465L7.45373 4.53706C7.3334 4.6574 7.17019 4.725 7.00001 4.725V2.275ZM5.72132 2.80465C5.38219 3.14378 5.19167 3.60373 5.19167 4.08333H7.64167C7.64167 4.25351 7.57407 4.41672 7.45373 4.53706L5.72132 2.80465ZM5.19167 4.08333V8.51083H7.64167V4.08333H5.19167ZM7.28419 7.64594L5.36503 5.72094L3.62999 7.45072L5.54915 9.37572L7.28419 7.64594ZM5.36371 5.71963C5.02414 5.38005 4.56357 5.18928 4.08334 5.18928V7.63928C3.91379 7.63928 3.75119 7.57193 3.6313 7.45204L5.36371 5.71963ZM4.08334 5.18928C3.60311 5.18928 3.14254 5.38005 2.80297 5.71963L4.53538 7.45204C4.41549 7.57193 4.25289 7.63928 4.08334 7.63928V5.18928ZM2.80297 5.71963C2.46339 6.0592 2.27262 6.51977 2.27262 7H4.72262C4.72262 7.16955 4.65527 7.33215 4.53538 7.45204L2.80297 5.71963ZM2.27262 7C2.27262 7.48023 2.46339 7.9408 2.80297 8.28037L4.53538 6.54796C4.65527 6.66785 4.72262 6.83045 4.72262 7H2.27262ZM2.80297 8.28037L5.71963 11.197L7.45205 9.46463L4.53538 6.54796L2.80297 8.28037ZM5.73874 11.2157C5.91072 11.3804 6.11351 11.5094 6.33549 11.5955L7.22119 9.31118C7.29996 9.34172 7.37192 9.38752 7.43294 9.44593L5.73874 11.2157ZM6.28313 11.5738C6.50894 11.6736 6.75311 11.7251 7.00001 11.7251V9.27514C7.09421 9.27514 7.18738 9.29481 7.27355 9.33289L6.28313 11.5738ZM7.00001 11.7251C7.2469 11.7251 7.49107 11.6736 7.71689 11.5738L6.72646 9.33289C6.81263 9.29481 6.9058 9.27514 7.00001 9.27514V11.7251ZM7.66452 11.5955C7.8865 11.5094 8.08929 11.3804 8.26127 11.2157L6.56708 9.44593C6.6281 9.38752 6.70006 9.34172 6.77883 9.31118L7.66452 11.5955ZM8.28038 11.197L11.197 8.28037L9.46463 6.54796L6.54797 9.46463L8.28038 11.197ZM11.1935 8.28392C11.363 8.11582 11.4975 7.91581 11.5893 7.69544L9.32774 6.75323C9.36032 6.67503 9.40805 6.60406 9.46819 6.54442L11.1935 8.28392ZM11.5893 7.69544C11.6811 7.47508 11.7284 7.23872 11.7284 7H9.27839C9.27839 6.9153 9.29516 6.83143 9.32774 6.75323L11.5893 7.69544ZM11.7284 7C11.7284 6.76128 11.6811 6.52492 11.5893 6.30456L9.32774 7.24677C9.29516 7.16857 9.27839 7.0847 9.27839 7H11.7284ZM11.5893 6.30456C11.4975 6.08419 11.363 5.88419 11.1935 5.71608L9.46819 7.45558C9.40805 7.39594 9.36032 7.32497 9.32774 7.24677L11.5893 6.30456Z" fill="white" mask="url(#path-1-inside-1_58_1232)"></path></svg>