<svg width="24" height="24" viewBox="0 0 24 24" fill="none" xmlns="http://www.w3.org/2000/svg"><path d="M15 12L6.49998 20.5C5.66998 21.33 4.32998 21.33 3.49998 20.5C3.30284 20.3031 3.14645 20.0693 3.03974 19.8119C2.93304 19.5545 2.87811 19.2786 2.87811 19C2.87811 18.7214 2.93304 18.4455 3.03974 18.1881C3.14645 17.9307 3.30284 17.6969 3.49998 17.5L12 9" stroke="white" stroke-width="2" stroke-linecap="round" stroke-linejoin="round"></path><path d="M17.64 15L22 10.64" stroke="white" stroke-width="2" stroke-linecap="round" stroke-linejoin="round"></path><path d="M20.91 11.7L19.66 10.45C19.06 9.84996 18.73 9.04996 18.73 8.19996V7.33996L16.01 4.59996C15.4936 4.08058 14.8798 3.66832 14.2036 3.38688C13.5275 3.10544 12.8024 2.96036 12.07 2.95996H9L9.92 3.77996C10.5735 4.35935 11.0967 5.07066 11.4552 5.867C11.8137 6.66335 11.9994 7.52663 12 8.39996V9.95996L14 11.96H16.47L18.73 13.87" stroke="white" stroke-width="2" stroke-linecap="round" stroke-linejoin="round"></path></svg>