<svg
                  className="m-auto"
                  width="24"
                  height="24"
                  viewBox="0 0 24 24"
                  fill="none"
                  xmlns="http://www.w3.org/2000/svg"
                >
                  <mask id="path-1-inside-1_17_81" fill="white">
                    <path d="M10 21H8C7.73478 21 7.48043 21.1054 7.29289 21.2929C7.10536 21.4804 7 21.7348 7 22C7 22.2652 7.10536 22.5196 7.29289 22.7071C7.48043 22.8946 7.73478 23 8 23H10C10.2652 23 10.5196 22.8946 10.7071 22.7071C10.8946 22.5196 11 22.2652 11 22C11 21.7348 10.8946 21.4804 10.7071 21.2929C10.5196 21.1054 10.2652 21 10 21ZM11 17H6C5.73478 17 5.48043 17.1054 5.29289 17.2929C5.10536 17.4804 5 17.7348 5 18C5 18.2652 5.10536 18.5196 5.29289 18.7071C5.48043 18.8946 5.73478 19 6 19H11C11.2652 19 11.5196 18.8946 11.7071 18.7071C11.8946 18.5196 12 18.2652 12 18C12 17.7348 11.8946 17.4804 11.7071 17.2929C11.5196 17.1054 11.2652 17 11 17ZM18 2C18 1.73478 17.8946 1.48043 17.7071 1.29289C17.5196 1.10536 17.2652 1 17 1H3C2.73478 1 2.48043 1.10536 2.29289 1.29289C2.10536 1.48043 2 1.73478 2 2C2 2.26522 2.10536 2.51957 2.29289 2.70711C2.48043 2.89464 2.73478 3 3 3H17C17.2652 3 17.5196 2.89464 17.7071 2.70711C17.8946 2.51957 18 2.26522 18 2ZM21 5H6C5.73478 5 5.48043 5.10536 5.29289 5.29289C5.10536 5.48043 5 5.73478 5 6C5 6.26522 5.10536 6.51957 5.29289 6.70711C5.48043 6.89464 5.73478 7 6 7H21C21.2652 7 21.5196 6.89464 21.7071 6.70711C21.8946 6.51957 22 6.26522 22 6C22 5.73478 21.8946 5.48043 21.7071 5.29289C21.5196 5.10536 21.2652 5 21 5ZM19 9H10C9.73478 9 9.48043 9.10536 9.29289 9.29289C9.10536 9.48043 9 9.73478 9 10C9 10.2652 9.10536 10.5196 9.29289 10.7071C9.48043 10.8946 9.73478 11 10 11H19C19.2652 11 19.5196 10.8946 19.7071 10.7071C19.8946 10.5196 20 10.2652 20 10C20 9.73478 19.8946 9.48043 19.7071 9.29289C19.5196 9.10536 19.2652 9 19 9ZM14 13H8C7.73478 13 7.48043 13.1054 7.29289 13.2929C7.10536 13.4804 7 13.7348 7 14C7 14.2652 7.10536 14.5196 7.29289 14.7071C7.48043 14.8946 7.73478 15 8 15H14C14.2652 15 14.5196 14.8946 14.7071 14.7071C14.8946 14.5196 15 14.2652 15 14C15 13.7348 14.8946 13.4804 14.7071 13.2929C14.5196 13.1054 14.2652 13 14 13Z" />
                  </mask>
                  <path
                    d="M10 21H8C7.73478 21 7.48043 21.1054 7.29289 21.2929C7.10536 21.4804 7 21.7348 7 22C7 22.2652 7.10536 22.5196 7.29289 22.7071C7.48043 22.8946 7.73478 23 8 23H10C10.2652 23 10.5196 22.8946 10.7071 22.7071C10.8946 22.5196 11 22.2652 11 22C11 21.7348 10.8946 21.4804 10.7071 21.2929C10.5196 21.1054 10.2652 21 10 21ZM11 17H6C5.73478 17 5.48043 17.1054 5.29289 17.2929C5.10536 17.4804 5 17.7348 5 18C5 18.2652 5.10536 18.5196 5.29289 18.7071C5.48043 18.8946 5.73478 19 6 19H11C11.2652 19 11.5196 18.8946 11.7071 18.7071C11.8946 18.5196 12 18.2652 12 18C12 17.7348 11.8946 17.4804 11.7071 17.2929C11.5196 17.1054 11.2652 17 11 17ZM18 2C18 1.73478 17.8946 1.48043 17.7071 1.29289C17.5196 1.10536 17.2652 1 17 1H3C2.73478 1 2.48043 1.10536 2.29289 1.29289C2.10536 1.48043 2 1.73478 2 2C2 2.26522 2.10536 2.51957 2.29289 2.70711C2.48043 2.89464 2.73478 3 3 3H17C17.2652 3 17.5196 2.89464 17.7071 2.70711C17.8946 2.51957 18 2.26522 18 2ZM21 5H6C5.73478 5 5.48043 5.10536 5.29289 5.29289C5.10536 5.48043 5 5.73478 5 6C5 6.26522 5.10536 6.51957 5.29289 6.70711C5.48043 6.89464 5.73478 7 6 7H21C21.2652 7 21.5196 6.89464 21.7071 6.70711C21.8946 6.51957 22 6.26522 22 6C22 5.73478 21.8946 5.48043 21.7071 5.29289C21.5196 5.10536 21.2652 5 21 5ZM19 9H10C9.73478 9 9.48043 9.10536 9.29289 9.29289C9.10536 9.48043 9 9.73478 9 10C9 10.2652 9.10536 10.5196 9.29289 10.7071C9.48043 10.8946 9.73478 11 10 11H19C19.2652 11 19.5196 10.8946 19.7071 10.7071C19.8946 10.5196 20 10.2652 20 10C20 9.73478 19.8946 9.48043 19.7071 9.29289C19.5196 9.10536 19.2652 9 19 9ZM14 13H8C7.73478 13 7.48043 13.1054 7.29289 13.2929C7.10536 13.4804 7 13.7348 7 14C7 14.2652 7.10536 14.5196 7.29289 14.7071C7.48043 14.8946 7.73478 15 8 15H14C14.2652 15 14.5196 14.8946 14.7071 14.7071C14.8946 14.5196 15 14.2652 15 14C15 13.7348 14.8946 13.4804 14.7071 13.2929C14.5196 13.1054 14.2652 13 14 13Z"
                    fill="white"
                  />
                  <path
                    d="M17 1V-1.1V1ZM3 1V-1.1V1ZM2 2H-0.0999999H2ZM3 3V5.1V3ZM17 3V5.1V3ZM10 18.9H8V23.1H10V18.9ZM8 18.9C7.17783 18.9 6.38933 19.2266 5.80797 19.808L8.77782 22.7778C8.57153 22.9841 8.29173 23.1 8 23.1V18.9ZM5.80797 19.808C5.22661 20.3893 4.9 21.1778 4.9 22H9.1C9.1 22.2917 8.98411 22.5715 8.77782 22.7778L5.80797 19.808ZM4.9 22C4.9 22.8222 5.22661 23.6107 5.80797 24.192L8.77782 21.2222C8.98411 21.4285 9.1 21.7083 9.1 22H4.9ZM5.80797 24.192C6.38933 24.7734 7.17783 25.1 8 25.1V20.9C8.29173 20.9 8.57153 21.0159 8.77782 21.2222L5.80797 24.192ZM8 25.1H10V20.9H8V25.1ZM10 25.1C10.8222 25.1 11.6107 24.7734 12.192 24.192L9.22218 21.2222C9.42847 21.0159 9.70827 20.9 10 20.9V25.1ZM12.192 24.192C12.7734 23.6107 13.1 22.8222 13.1 22H8.9C8.9 21.7083 9.01589 21.4285 9.22218 21.2222L12.192 24.192ZM13.1 22C13.1 21.1778 12.7734 20.3893 12.192 19.808L9.22218 22.7778C9.01589 22.5715 8.9 22.2917 8.9 22H13.1ZM12.192 19.808C11.6107 19.2266 10.8222 18.9 10 18.9V23.1C9.70827 23.1 9.42847 22.9841 9.22218 22.7778L12.192 19.808ZM11 14.9H6V19.1H11V14.9ZM6 14.9C5.17783 14.9 4.38933 15.2266 3.80797 15.808L6.77782 18.7778C6.57153 18.9841 6.29173 19.1 6 19.1V14.9ZM3.80797 15.808C3.22661 16.3893 2.9 17.1778 2.9 18H7.1C7.1 18.2917 6.98411 18.5715 6.77782 18.7778L3.80797 15.808ZM2.9 18C2.9 18.8222 3.22661 19.6107 3.80797 20.192L6.77782 17.2222C6.98411 17.4285 7.1 17.7083 7.1 18H2.9ZM3.80797 20.192C4.38933 20.7734 5.17783 21.1 6 21.1V16.9C6.29173 16.9 6.57153 17.0159 6.77782 17.2222L3.80797 20.192ZM6 21.1H11V16.9H6V21.1ZM11 21.1C11.8222 21.1 12.6107 20.7734 13.192 20.192L10.2222 17.2222C10.4285 17.0159 10.7083 16.9 11 16.9V21.1ZM13.192 20.192C13.7734 19.6107 14.1 18.8222 14.1 18H9.9C9.9 17.7083 10.0159 17.4285 10.2222 17.2222L13.192 20.192ZM14.1 18C14.1 17.1778 13.7734 16.3893 13.192 15.808L10.2222 18.7778C10.0159 18.5715 9.9 18.2917 9.9 18H14.1ZM13.192 15.808C12.6107 15.2266 11.8222 14.9 11 14.9V19.1C10.7083 19.1 10.4285 18.9841 10.2222 18.7778L13.192 15.808ZM20.1 2C20.1 1.17783 19.7734 0.389335 19.192 -0.192031L16.2222 2.77782C16.0159 2.57152 15.9 2.29173 15.9 2H20.1ZM19.192 -0.192031C18.6107 -0.773395 17.8222 -1.1 17 -1.1V3.1C16.7083 3.1 16.4285 2.98411 16.2222 2.77782L19.192 -0.192031ZM17 -1.1H3V3.1H17V-1.1ZM3 -1.1C2.17783 -1.1 1.38933 -0.773394 0.807969 -0.192031L3.77782 2.77782C3.57153 2.98411 3.29174 3.1 3 3.1V-1.1ZM0.807969 -0.192031C0.226606 0.389332 -0.0999999 1.17783 -0.0999999 2H4.1C4.1 2.29174 3.98411 2.57153 3.77782 2.77782L0.807969 -0.192031ZM-0.0999999 2C-0.0999999 2.82217 0.226606 3.61067 0.807969 4.19203L3.77782 1.22218C3.98411 1.42847 4.1 1.70826 4.1 2H-0.0999999ZM0.807969 4.19203C1.38933 4.77339 2.17783 5.1 3 5.1V0.9C3.29174 0.9 3.57153 1.01589 3.77782 1.22218L0.807969 4.19203ZM3 5.1H17V0.9H3V5.1ZM17 5.1C17.8222 5.1 18.6107 4.7734 19.192 4.19203L16.2222 1.22218C16.4285 1.01589 16.7083 0.9 17 0.9V5.1ZM19.192 4.19203C19.7734 3.61067 20.1 2.82217 20.1 2H15.9C15.9 1.70827 16.0159 1.42848 16.2222 1.22218L19.192 4.19203ZM21 2.9H6V7.1H21V2.9ZM6 2.9C5.17783 2.9 4.38933 3.22661 3.80797 3.80797L6.77782 6.77782C6.57153 6.98411 6.29174 7.1 6 7.1V2.9ZM3.80797 3.80797C3.22661 4.38933 2.9 5.17783 2.9 6H7.1C7.1 6.29174 6.98411 6.57153 6.77782 6.77782L3.80797 3.80797ZM2.9 6C2.9 6.82217 3.22661 7.61067 3.80797 8.19203L6.77782 5.22218C6.98411 5.42847 7.1 5.70826 7.1 6H2.9ZM3.80797 8.19203C4.38933 8.77339 5.17783 9.1 6 9.1V4.9C6.29174 4.9 6.57153 5.01589 6.77782 5.22218L3.80797 8.19203ZM6 9.1H21V4.9H6V9.1ZM21 9.1C21.8222 9.1 22.6107 8.77339 23.192 8.19203L20.2222 5.22218C20.4285 5.01589 20.7083 4.9 21 4.9V9.1ZM23.192 8.19203C23.7734 7.61067 24.1 6.82217 24.1 6H19.9C19.9 5.70827 20.0159 5.42847 20.2222 5.22218L23.192 8.19203ZM24.1 6C24.1 5.17783 23.7734 4.38933 23.192 3.80797L20.2222 6.77782C20.0159 6.57153 19.9 6.29173 19.9 6H24.1ZM23.192 3.80797C22.6107 3.22661 21.8222 2.9 21 2.9V7.1C20.7083 7.1 20.4285 6.98411 20.2222 6.77782L23.192 3.80797ZM19 6.9H10V11.1H19V6.9ZM10 6.9C9.17783 6.9 8.38933 7.22661 7.80797 7.80797L10.7778 10.7778C10.5715 10.9841 10.2917 11.1 10 11.1V6.9ZM7.80797 7.80797C7.22661 8.38933 6.9 9.17783 6.9 10H11.1C11.1 10.2917 10.9841 10.5715 10.7778 10.7778L7.80797 7.80797ZM6.9 10C6.9 10.8222 7.22661 11.6107 7.80797 12.192L10.7778 9.22218C10.9841 9.42847 11.1 9.70826 11.1 10H6.9ZM7.80797 12.192C8.38933 12.7734 9.17783 13.1 10 13.1V8.9C10.2917 8.9 10.5715 9.01589 10.7778 9.22218L7.80797 12.192ZM10 13.1H19V8.9H10V13.1ZM19 13.1C19.8222 13.1 20.6107 12.7734 21.192 12.192L18.2222 9.22218C18.4285 9.01589 18.7083 8.9 19 8.9V13.1ZM21.192 12.192C21.7734 11.6107 22.1 10.8222 22.1 10H17.9C17.9 9.70827 18.0159 9.42848 18.2222 9.22218L21.192 12.192ZM22.1 10C22.1 9.17783 21.7734 8.38933 21.192 7.80797L18.2222 10.7778C18.0159 10.5715 17.9 10.2917 17.9 10H22.1ZM21.192 7.80797C20.6107 7.22661 19.8222 6.9 19 6.9V11.1C18.7083 11.1 18.4285 10.9841 18.2222 10.7778L21.192 7.80797ZM14 10.9H8V15.1H14V10.9ZM8 10.9C7.17783 10.9 6.38933 11.2266 5.80797 11.808L8.77782 14.7778C8.57153 14.9841 8.29174 15.1 8 15.1V10.9ZM5.80797 11.808C5.22661 12.3893 4.9 13.1778 4.9 14H9.1C9.1 14.2917 8.98411 14.5715 8.77782 14.7778L5.80797 11.808ZM4.9 14C4.9 14.8222 5.22661 15.6107 5.80797 16.192L8.77782 13.2222C8.98411 13.4285 9.1 13.7083 9.1 14H4.9ZM5.80797 16.192C6.38933 16.7734 7.17783 17.1 8 17.1V12.9C8.29174 12.9 8.57153 13.0159 8.77782 13.2222L5.80797 16.192ZM8 17.1H14V12.9H8V17.1ZM14 17.1C14.8222 17.1 15.6107 16.7734 16.192 16.192L13.2222 13.2222C13.4285 13.0159 13.7083 12.9 14 12.9V17.1ZM16.192 16.192C16.7734 15.6107 17.1 14.8222 17.1 14H12.9C12.9 13.7083 13.0159 13.4285 13.2222 13.2222L16.192 16.192ZM17.1 14C17.1 13.1778 16.7734 12.3893 16.192 11.808L13.2222 14.7778C13.0159 14.5715 12.9 14.2917 12.9 14H17.1ZM16.192 11.808C15.6107 11.2266 14.8222 10.9 14 10.9V15.1C13.7083 15.1 13.4285 14.9841 13.2222 14.7778L16.192 11.808Z"
                    fill="white"
                    mask="url(#path-1-inside-1_17_81)"
                  />
                </svg>