<svg class="" width="14" height="15" viewBox="0 0 14 15" fill="none" xmlns="http://www.w3.org/2000/svg"><mask id="path-1-inside-1_58_705" fill="white"><path d="M9.91659 4.03503C9.51203 4.0353 9.12006 4.17572 8.80737 4.43242C8.49468 4.68911 8.28059 5.04621 8.20151 5.44297C8.12243 5.83972 8.18326 6.25162 8.37365 6.60858C8.56403 6.96554 8.87222 7.24551 9.24576 7.40086C9.15695 7.61374 9.00704 7.79552 8.81496 7.92323C8.62288 8.05094 8.39725 8.11884 8.16659 8.11836H5.83326C5.42203 8.12008 5.01892 8.23295 4.66659 8.44503V5.09669C5.0558 4.95909 5.38383 4.68832 5.59271 4.33225C5.80159 3.97617 5.87786 3.55772 5.80805 3.15085C5.73825 2.74398 5.52685 2.37488 5.21122 2.1088C4.8956 1.84272 4.49607 1.69678 4.08326 1.69678C3.67044 1.69678 3.27091 1.84272 2.95529 2.1088C2.63966 2.37488 2.42827 2.74398 2.35846 3.15085C2.28865 3.55772 2.36493 3.97617 2.5738 4.33225C2.78268 4.68832 3.11071 4.95909 3.49992 5.09669V9.97336C3.1155 10.1116 2.79156 10.38 2.58423 10.732C2.37691 11.084 2.29928 11.4975 2.36478 11.9007C2.43029 12.304 2.63481 12.6716 2.9429 12.9399C3.25098 13.2081 3.64322 13.3602 4.05164 13.3696C4.46006 13.3791 4.85892 13.2454 5.17909 12.9916C5.49926 12.7379 5.72057 12.3801 5.80466 11.9803C5.88876 11.5806 5.83034 11.164 5.63953 10.8027C5.44871 10.4415 5.13754 10.1584 4.75992 10.0025C4.84834 9.79056 4.99736 9.60941 5.18829 9.48178C5.37923 9.35414 5.60359 9.2857 5.83326 9.28503H8.16659C8.70024 9.28492 9.21773 9.10189 9.63278 8.76645C10.0478 8.43102 10.3354 7.96344 10.4474 7.44169C10.8374 7.30918 11.1682 7.04334 11.3815 6.69097C11.5948 6.3386 11.677 5.92228 11.6136 5.51529C11.5501 5.1083 11.3452 4.73673 11.0348 4.46596C10.7244 4.1952 10.3284 4.0426 9.91659 4.03503ZM4.08326 2.86836C4.19863 2.86836 4.31141 2.90257 4.40734 2.96667C4.50327 3.03077 4.57803 3.12187 4.62219 3.22846C4.66634 3.33505 4.67789 3.45234 4.65538 3.5655C4.63287 3.67865 4.57732 3.78259 4.49573 3.86417C4.41415 3.94575 4.31021 4.00131 4.19706 4.02382C4.0839 4.04633 3.96661 4.03477 3.86002 3.99062C3.75343 3.94647 3.66233 3.8717 3.59823 3.77578C3.53413 3.67985 3.49992 3.56707 3.49992 3.45169C3.49992 3.29698 3.56138 3.14861 3.67078 3.03921C3.78017 2.92982 3.92855 2.86836 4.08326 2.86836ZM4.08326 12.2017C3.96788 12.2017 3.8551 12.1675 3.75917 12.1034C3.66324 12.0393 3.58848 11.9482 3.54433 11.8416C3.50017 11.735 3.48862 11.6177 3.51113 11.5046C3.53364 11.3914 3.5892 11.2875 3.67078 11.2059C3.75236 11.1243 3.8563 11.0687 3.96945 11.0462C4.08261 11.0237 4.1999 11.0353 4.30649 11.0794C4.41308 11.1236 4.50418 11.1983 4.56828 11.2943C4.63238 11.3902 4.66659 11.503 4.66659 11.6184C4.66659 11.7731 4.60513 11.9214 4.49573 12.0308C4.38634 12.1402 4.23797 12.2017 4.08326 12.2017ZM9.91659 6.36836C9.80122 6.36836 9.68844 6.33415 9.59251 6.27005C9.49658 6.20595 9.42181 6.11485 9.37766 6.00826C9.33351 5.90167 9.32196 5.78438 9.34447 5.67122C9.36697 5.55807 9.42253 5.45413 9.50411 5.37255C9.58569 5.29097 9.68963 5.23541 9.80279 5.2129C9.91594 5.19039 10.0332 5.20195 10.1398 5.2461C10.2464 5.29025 10.3375 5.36502 10.4016 5.46094C10.4657 5.55687 10.4999 5.66965 10.4999 5.78503C10.4999 5.93974 10.4385 6.08811 10.3291 6.19751C10.2197 6.3069 10.0713 6.36836 9.91659 6.36836Z"></path></mask><path d="M9.91659 4.03503C9.51203 4.0353 9.12006 4.17572 8.80737 4.43242C8.49468 4.68911 8.28059 5.04621 8.20151 5.44297C8.12243 5.83972 8.18326 6.25162 8.37365 6.60858C8.56403 6.96554 8.87222 7.24551 9.24576 7.40086C9.15695 7.61374 9.00704 7.79552 8.81496 7.92323C8.62288 8.05094 8.39725 8.11884 8.16659 8.11836H5.83326C5.42203 8.12008 5.01892 8.23295 4.66659 8.44503V5.09669C5.0558 4.95909 5.38383 4.68832 5.59271 4.33225C5.80159 3.97617 5.87786 3.55772 5.80805 3.15085C5.73825 2.74398 5.52685 2.37488 5.21122 2.1088C4.8956 1.84272 4.49607 1.69678 4.08326 1.69678C3.67044 1.69678 3.27091 1.84272 2.95529 2.1088C2.63966 2.37488 2.42827 2.74398 2.35846 3.15085C2.28865 3.55772 2.36493 3.97617 2.5738 4.33225C2.78268 4.68832 3.11071 4.95909 3.49992 5.09669V9.97336C3.1155 10.1116 2.79156 10.38 2.58423 10.732C2.37691 11.084 2.29928 11.4975 2.36478 11.9007C2.43029 12.304 2.63481 12.6716 2.9429 12.9399C3.25098 13.2081 3.64322 13.3602 4.05164 13.3696C4.46006 13.3791 4.85892 13.2454 5.17909 12.9916C5.49926 12.7379 5.72057 12.3801 5.80466 11.9803C5.88876 11.5806 5.83034 11.164 5.63953 10.8027C5.44871 10.4415 5.13754 10.1584 4.75992 10.0025C4.84834 9.79056 4.99736 9.60941 5.18829 9.48178C5.37923 9.35414 5.60359 9.2857 5.83326 9.28503H8.16659C8.70024 9.28492 9.21773 9.10189 9.63278 8.76645C10.0478 8.43102 10.3354 7.96344 10.4474 7.44169C10.8374 7.30918 11.1682 7.04334 11.3815 6.69097C11.5948 6.3386 11.677 5.92228 11.6136 5.51529C11.5501 5.1083 11.3452 4.73673 11.0348 4.46596C10.7244 4.1952 10.3284 4.0426 9.91659 4.03503ZM4.08326 2.86836C4.19863 2.86836 4.31141 2.90257 4.40734 2.96667C4.50327 3.03077 4.57803 3.12187 4.62219 3.22846C4.66634 3.33505 4.67789 3.45234 4.65538 3.5655C4.63287 3.67865 4.57732 3.78259 4.49573 3.86417C4.41415 3.94575 4.31021 4.00131 4.19706 4.02382C4.0839 4.04633 3.96661 4.03477 3.86002 3.99062C3.75343 3.94647 3.66233 3.8717 3.59823 3.77578C3.53413 3.67985 3.49992 3.56707 3.49992 3.45169C3.49992 3.29698 3.56138 3.14861 3.67078 3.03921C3.78017 2.92982 3.92855 2.86836 4.08326 2.86836ZM4.08326 12.2017C3.96788 12.2017 3.8551 12.1675 3.75917 12.1034C3.66324 12.0393 3.58848 11.9482 3.54433 11.8416C3.50017 11.735 3.48862 11.6177 3.51113 11.5046C3.53364 11.3914 3.5892 11.2875 3.67078 11.2059C3.75236 11.1243 3.8563 11.0687 3.96945 11.0462C4.08261 11.0237 4.1999 11.0353 4.30649 11.0794C4.41308 11.1236 4.50418 11.1983 4.56828 11.2943C4.63238 11.3902 4.66659 11.503 4.66659 11.6184C4.66659 11.7731 4.60513 11.9214 4.49573 12.0308C4.38634 12.1402 4.23797 12.2017 4.08326 12.2017ZM9.91659 6.36836C9.80122 6.36836 9.68844 6.33415 9.59251 6.27005C9.49658 6.20595 9.42181 6.11485 9.37766 6.00826C9.33351 5.90167 9.32196 5.78438 9.34447 5.67122C9.36697 5.55807 9.42253 5.45413 9.50411 5.37255C9.58569 5.29097 9.68963 5.23541 9.80279 5.2129C9.91594 5.19039 10.0332 5.20195 10.1398 5.2461C10.2464 5.29025 10.3375 5.36502 10.4016 5.46094C10.4657 5.55687 10.4999 5.66965 10.4999 5.78503C10.4999 5.93974 10.4385 6.08811 10.3291 6.19751C10.2197 6.3069 10.0713 6.36836 9.91659 6.36836Z" fill="white"></path><path d="M9.24576 7.40086L10.3763 7.87248L10.8485 6.74068L9.71616 6.26978L9.24576 7.40086ZM8.16659 8.11836L8.16914 6.89336H8.16659V8.11836ZM5.83326 8.11836V6.89335L5.82812 6.89337L5.83326 8.11836ZM4.66659 8.44503H3.44159V10.6122L5.29832 9.49457L4.66659 8.44503ZM4.66659 5.09669L4.25826 3.94175L3.44159 4.23049V5.09669H4.66659ZM4.08326 1.69678V2.92178V1.69678ZM3.49992 5.09669H4.72492V4.23049L3.90826 3.94175L3.49992 5.09669ZM3.49992 9.97336L3.91448 11.1261L4.72492 10.8346V9.97336H3.49992ZM4.75992 10.0025L3.62935 9.53091L3.15599 10.6657L4.29248 11.1348L4.75992 10.0025ZM5.83326 9.28503V8.06002L5.82968 8.06003L5.83326 9.28503ZM8.16659 9.28503V10.51H8.16684L8.16659 9.28503ZM10.4474 7.44169L10.0533 6.28182L9.39561 6.5053L9.24974 7.18444L10.4474 7.44169ZM10.3291 6.19751L9.46286 5.3313L10.3291 6.19751ZM9.91578 2.81003C9.22803 2.81048 8.56168 3.04921 8.03011 3.48559L9.58464 5.37924C9.67845 5.30224 9.79604 5.26011 9.91741 5.26003L9.91578 2.81003ZM8.03011 3.48559C7.49853 3.92197 7.13457 4.52904 7.00014 5.20353L9.40288 5.68241C9.4266 5.56338 9.49083 5.45625 9.58464 5.37924L8.03011 3.48559ZM7.00014 5.20353C6.86571 5.87801 6.96912 6.57823 7.29278 7.18506L9.45452 6.03209C9.39741 5.925 9.37916 5.80143 9.40288 5.68241L7.00014 5.20353ZM7.29278 7.18506C7.61643 7.7919 8.14034 8.26785 8.77536 8.53194L9.71616 6.26978C9.60409 6.22317 9.51164 6.13918 9.45452 6.03209L7.29278 7.18506ZM8.11518 6.92924C8.11962 6.91859 8.12712 6.9095 8.13672 6.90312L9.49319 8.94334C9.88696 8.68154 10.1943 8.30889 10.3763 7.87248L8.11518 6.92924ZM8.13672 6.90312C8.14633 6.89673 8.15761 6.89334 8.16914 6.89336L8.16404 9.34336C8.63689 9.34434 9.09943 9.20514 9.49319 8.94334L8.13672 6.90312ZM8.16659 6.89336H5.83326V9.34336H8.16659V6.89336ZM5.82812 6.89337C5.19603 6.89602 4.57642 7.06951 4.03486 7.39549L5.29832 9.49457C5.46142 9.3964 5.64803 9.34415 5.83839 9.34335L5.82812 6.89337ZM5.89159 8.44503V5.09669H3.44159V8.44503H5.89159ZM5.07492 6.25163C5.73658 6.0177 6.29423 5.5574 6.64932 4.95208L4.53609 3.71242C4.47343 3.81924 4.37502 3.90047 4.25826 3.94175L5.07492 6.25163ZM6.64932 4.95208C7.00442 4.34675 7.13409 3.63538 7.01541 2.9437L4.6007 3.358C4.62164 3.48006 4.59876 3.6056 4.53609 3.71242L6.64932 4.95208ZM7.01541 2.9437C6.89674 2.25202 6.53736 1.62455 6.0008 1.17221L4.42165 3.04538C4.51633 3.12521 4.57975 3.23594 4.6007 3.358L7.01541 2.9437ZM6.0008 1.17221C5.46424 0.719872 4.78505 0.471777 4.08326 0.471777V2.92178C4.2071 2.92178 4.32696 2.96556 4.42165 3.04538L6.0008 1.17221ZM4.08326 0.471777C3.38147 0.471777 2.70227 0.719872 2.16571 1.17221L3.74487 3.04538C3.83955 2.96556 3.95941 2.92178 4.08326 2.92178V0.471777ZM2.16571 1.17221C1.62915 1.62455 1.26977 2.25202 1.1511 2.9437L3.56582 3.358C3.58676 3.23594 3.65018 3.12521 3.74487 3.04538L2.16571 1.17221ZM1.1511 2.9437C1.03243 3.63538 1.16209 4.34675 1.51719 4.95208L3.63042 3.71242C3.56776 3.6056 3.54487 3.48006 3.56582 3.358L1.1511 2.9437ZM1.51719 4.95208C1.87228 5.5574 2.42994 6.0177 3.09159 6.25163L3.90826 3.94175C3.79149 3.90047 3.69308 3.81924 3.63042 3.71242L1.51719 4.95208ZM2.27492 5.09669V9.97336H4.72492V5.09669H2.27492ZM3.08537 8.82064C2.43185 9.05566 1.88115 9.51192 1.5287 10.1103L3.63977 11.3537C3.70197 11.2481 3.79915 11.1676 3.91448 11.1261L3.08537 8.82064ZM1.5287 10.1103C1.17625 10.7088 1.04427 11.4116 1.15563 12.0971L3.57393 11.7043C3.55428 11.5833 3.57757 11.4593 3.63977 11.3537L1.5287 10.1103ZM1.15563 12.0971C1.26699 12.7826 1.61468 13.4076 2.13843 13.8637L3.74737 12.016C3.65494 11.9355 3.59359 11.8253 3.57393 11.7043L1.15563 12.0971ZM2.13843 13.8637C2.66217 14.3198 3.32898 14.5782 4.02329 14.5943L4.07999 12.145C3.95747 12.1421 3.83979 12.0965 3.74737 12.016L2.13843 13.8637ZM4.02329 14.5943C4.71761 14.6104 5.39566 14.383 5.93995 13.9517L4.41823 12.0316C4.32217 12.1077 4.20252 12.1478 4.07999 12.145L4.02329 14.5943ZM5.93995 13.9517C6.48424 13.5203 6.86047 12.9121 7.00343 12.2325L4.6059 11.7282C4.58067 11.8481 4.51428 11.9554 4.41823 12.0316L5.93995 13.9517ZM7.00343 12.2325C7.14639 11.5529 7.04707 10.8447 6.72269 10.2306L4.55636 11.3749C4.6136 11.4833 4.63113 11.6082 4.6059 11.7282L7.00343 12.2325ZM6.72269 10.2306C6.39831 9.61648 5.86931 9.13523 5.22737 8.87022L4.29248 11.1348C4.40576 11.1816 4.49911 11.2665 4.55636 11.3749L6.72269 10.2306ZM5.8905 10.4741C5.88608 10.4847 5.87863 10.4938 5.86908 10.5002L4.50751 8.46337C4.11609 8.72502 3.81061 9.09638 3.62935 9.53091L5.8905 10.4741ZM5.86908 10.5002C5.85953 10.5066 5.84831 10.51 5.83683 10.51L5.82968 8.06003C5.35887 8.06141 4.89893 8.20171 4.50751 8.46337L5.86908 10.5002ZM5.83326 10.51H8.16659V8.06003H5.83326V10.51ZM8.16684 10.51C8.98066 10.5099 9.76983 10.2307 10.4028 9.7192L8.86278 7.8137C8.66564 7.97304 8.41983 8.05998 8.16634 8.06003L8.16684 10.51ZM10.4028 9.7192C11.0357 9.20766 11.4742 8.49461 11.6451 7.69894L9.24974 7.18444C9.19651 7.43228 9.05993 7.65437 8.86278 7.8137L10.4028 9.7192ZM10.8415 8.60157C11.5045 8.37629 12.0668 7.92437 12.4294 7.32534L10.3335 6.0566C10.2695 6.16231 10.1703 6.24206 10.0533 6.28182L10.8415 8.60157ZM12.4294 7.32534C12.7921 6.72631 12.9318 6.01857 12.8239 5.32669L10.4032 5.7039C10.4222 5.826 10.3975 5.95089 10.3335 6.0566L12.4294 7.32534ZM12.8239 5.32669C12.7161 4.63481 12.3677 4.00312 11.84 3.54282L10.2295 5.3891C10.3226 5.47033 10.3841 5.5818 10.4032 5.7039L12.8239 5.32669ZM11.84 3.54282C11.3124 3.08252 10.6392 2.82311 9.93911 2.81023L9.89407 5.25982C10.0176 5.26209 10.1364 5.30787 10.2295 5.3891L11.84 3.54282ZM4.08326 4.09336C3.95635 4.09336 3.83229 4.05573 3.72677 3.98522L5.08791 1.94812C4.79053 1.74942 4.44091 1.64336 4.08326 1.64336V4.09336ZM3.72677 3.98522C3.62124 3.91471 3.539 3.8145 3.49043 3.69725L5.75394 2.75967C5.61707 2.42924 5.38529 2.14682 5.08791 1.94812L3.72677 3.98522ZM3.49043 3.69725C3.44187 3.58 3.42916 3.45098 3.45392 3.32651L5.85684 3.80448C5.92662 3.4537 5.89081 3.0901 5.75394 2.75967L3.49043 3.69725ZM3.45392 3.32651C3.47868 3.20204 3.53979 3.0877 3.62953 2.99797L5.36194 4.73038C5.61484 4.47748 5.78707 4.15526 5.85684 3.80448L3.45392 3.32651ZM3.62953 2.99797C3.71927 2.90823 3.8336 2.84711 3.95807 2.82236L4.43604 5.22528C4.78683 5.15551 5.10904 4.98328 5.36194 4.73038L3.62953 2.99797ZM3.95807 2.82236C4.08254 2.7976 4.21156 2.8103 4.32881 2.85887L3.39124 5.12238C3.72167 5.25924 4.08526 5.29506 4.43604 5.22528L3.95807 2.82236ZM4.32881 2.85887C4.44606 2.90744 4.54628 2.98968 4.61678 3.0952L2.57968 4.45635C2.77838 4.75373 3.06081 4.98551 3.39124 5.12238L4.32881 2.85887ZM4.61678 3.0952C4.68729 3.20072 4.72492 3.32478 4.72492 3.45169H2.27492C2.27492 3.80935 2.38098 4.15897 2.57968 4.45635L4.61678 3.0952ZM4.72492 3.45169C4.72492 3.62187 4.65732 3.78508 4.53698 3.90542L2.80457 2.17301C2.46544 2.51214 2.27492 2.97209 2.27492 3.45169H4.72492ZM4.53698 3.90542C4.41665 4.02576 4.25344 4.09336 4.08326 4.09336V1.64336C3.60366 1.64336 3.1437 1.83388 2.80457 2.17301L4.53698 3.90542ZM4.08326 10.9767C4.21016 10.9767 4.33422 11.0143 4.43975 11.0848L3.0786 13.1219C3.37598 13.3206 3.7256 13.4267 4.08326 13.4267V10.9767ZM4.43975 11.0848C4.54527 11.1553 4.62751 11.2556 4.67608 11.3728L2.41257 12.3104C2.54944 12.6408 2.78122 12.9232 3.0786 13.1219L4.43975 11.0848ZM4.67608 11.3728C4.72464 11.4901 4.73735 11.6191 4.71259 11.7435L2.30967 11.2656C2.23989 11.6164 2.27571 11.9799 2.41257 12.3104L4.67608 11.3728ZM4.71259 11.7435C4.68783 11.868 4.62672 11.9824 4.53698 12.0721L2.80457 10.3397C2.55167 10.5926 2.37944 10.9148 2.30967 11.2656L4.71259 11.7435ZM4.53698 12.0721C4.44725 12.1618 4.33291 12.2229 4.20844 12.2477L3.73047 9.84477C3.37968 9.91455 3.05747 10.0868 2.80457 10.3397L4.53698 12.0721ZM4.20844 12.2477C4.08397 12.2725 3.95495 12.2597 3.8377 12.2112L4.77527 9.94768C4.44485 9.81081 4.08125 9.775 3.73047 9.84477L4.20844 12.2477ZM3.8377 12.2112C3.72045 12.1626 3.62024 12.0804 3.54973 11.9749L5.58683 10.6137C5.38813 10.3163 5.1057 10.0845 4.77527 9.94768L3.8377 12.2112ZM3.54973 11.9749C3.47922 11.8693 3.44159 11.7453 3.44159 11.6184H5.89159C5.89159 11.2607 5.78553 10.9111 5.58683 10.6137L3.54973 11.9749ZM3.44159 11.6184C3.44159 11.4482 3.50919 11.285 3.62953 11.1646L5.36194 12.897C5.70107 12.5579 5.89159 12.098 5.89159 11.6184H3.44159ZM3.62953 11.1646C3.74987 11.0443 3.91308 10.9767 4.08326 10.9767V13.4267C4.56285 13.4267 5.02281 13.2362 5.36194 12.897L3.62953 11.1646ZM9.91659 5.14336C10.0435 5.14336 10.1676 5.18099 10.2731 5.2515L8.91193 7.2886C9.20931 7.4873 9.55894 7.59336 9.91659 7.59336V5.14336ZM10.2731 5.2515C10.3786 5.32201 10.4608 5.42222 10.5094 5.53947L8.24591 6.47705C8.38278 6.80747 8.61455 7.0899 8.91193 7.2886L10.2731 5.2515ZM10.5094 5.53947C10.558 5.65672 10.5707 5.78574 10.5459 5.91021L8.143 5.43224C8.07323 5.78302 8.10904 6.14662 8.24591 6.47705L10.5094 5.53947ZM10.5459 5.91021C10.5212 6.03468 10.4601 6.14901 10.3703 6.23875L8.63791 4.50634C8.385 4.75924 8.21278 5.08146 8.143 5.43224L10.5459 5.91021ZM10.3703 6.23875C10.2806 6.32849 10.1662 6.38961 10.0418 6.41436L9.5638 4.01144C9.21302 4.08121 8.89081 4.25344 8.63791 4.50634L10.3703 6.23875ZM10.0418 6.41436C9.9173 6.43912 9.78828 6.42642 9.67103 6.37785L10.6086 4.11434C10.2782 3.97748 9.91458 3.94167 9.5638 4.01144L10.0418 6.41436ZM9.67103 6.37785C9.55379 6.32929 9.45357 6.24704 9.38306 6.14152L11.4202 4.78037C11.2215 4.48299 10.939 4.25121 10.6086 4.11434L9.67103 6.37785ZM9.38306 6.14152C9.31256 6.03599 9.27492 5.91193 9.27492 5.78503H11.7249C11.7249 5.42738 11.6189 5.07775 11.4202 4.78037L9.38306 6.14152ZM9.27492 5.78503C9.27492 5.61485 9.34253 5.45164 9.46286 5.3313L11.1953 7.06371C11.5344 6.72458 11.7249 6.26462 11.7249 5.78503H9.27492ZM9.46286 5.3313C9.5832 5.21096 9.74641 5.14336 9.91659 5.14336V7.59336C10.3962 7.59336 10.8561 7.40284 11.1953 7.06371L9.46286 5.3313Z" fill="white" mask="url(#path-1-inside-1_58_705)"></path></svg>