<svg class="my-auto mr-3" width="14" height="14" viewBox="0 0 14 14" fill="none" xmlns="http://www.w3.org/2000/svg"><mask id="path-1-inside-1_58_1200" fill="white"><path d="M10.5 4.08333H11.0833V4.66666C11.0833 4.82137 11.1448 4.96974 11.2542 5.07914C11.3636 5.18853 11.512 5.24999 11.6667 5.24999C11.8214 5.24999 11.9698 5.18853 12.0792 5.07914C12.1886 4.96974 12.25 4.82137 12.25 4.66666V4.08333H12.8333C12.9881 4.08333 13.1364 4.02187 13.2458 3.91247C13.3552 3.80308 13.4167 3.6547 13.4167 3.49999C13.4167 3.34528 13.3552 3.19691 13.2458 3.08751C13.1364 2.97812 12.9881 2.91666 12.8333 2.91666H12.25V2.33333C12.25 2.17862 12.1886 2.03024 12.0792 1.92085C11.9698 1.81145 11.8214 1.74999 11.6667 1.74999C11.512 1.74999 11.3636 1.81145 11.2542 1.92085C11.1448 2.03024 11.0833 2.17862 11.0833 2.33333V2.91666H10.5C10.3453 2.91666 10.1969 2.97812 10.0875 3.08751C9.97814 3.19691 9.91668 3.34528 9.91668 3.49999C9.91668 3.6547 9.97814 3.80308 10.0875 3.91247C10.1969 4.02187 10.3453 4.08333 10.5 4.08333ZM11.6667 9.33333C11.3046 9.33519 10.952 9.44932 10.6575 9.65999L9.22834 8.81416C9.29578 8.60485 9.33118 8.38655 9.33334 8.16666C9.33167 7.65067 9.159 7.14978 8.84236 6.74237C8.52572 6.33495 8.08295 6.04399 7.58334 5.91499V4.56166C7.97255 4.42405 8.30058 4.15329 8.50946 3.79721C8.71834 3.44114 8.79462 3.02269 8.72481 2.61581C8.655 2.20894 8.4436 1.83985 8.12798 1.57376C7.81236 1.30768 7.41283 1.16174 7.00001 1.16174C6.58719 1.16174 6.18767 1.30768 5.87204 1.57376C5.55642 1.83985 5.34502 2.20894 5.27521 2.61581C5.20541 3.02269 5.28168 3.44114 5.49056 3.79721C5.69944 4.15329 6.02747 4.42405 6.41668 4.56166V5.91499C5.91707 6.04399 5.47431 6.33495 5.15766 6.74237C4.84102 7.14978 4.66835 7.65067 4.66668 8.16666C4.66885 8.38655 4.70425 8.60485 4.77168 8.81416L3.34251 9.65999C3.04802 9.44932 2.69543 9.33519 2.33334 9.33333C1.98723 9.33333 1.64888 9.43596 1.3611 9.62825C1.07331 9.82055 0.849009 10.0939 0.716555 10.4136C0.584102 10.7334 0.549446 11.0853 0.61697 11.4247C0.684494 11.7642 0.851166 12.076 1.09591 12.3208C1.34065 12.5655 1.65247 12.7322 1.99194 12.7997C2.3314 12.8672 2.68327 12.8326 3.00304 12.7001C3.32281 12.5677 3.59612 12.3434 3.78842 12.0556C3.98071 11.7678 4.08334 11.4294 4.08334 11.0833C4.08119 10.9253 4.05764 10.7683 4.01334 10.6167L5.35501 9.81749C5.79219 10.2521 6.38358 10.496 7.00001 10.496C7.61644 10.496 8.20783 10.2521 8.64501 9.81749L9.98668 10.6167C9.88894 10.9699 9.90459 11.345 10.0314 11.6889C10.1583 12.0328 10.3899 12.3282 10.6936 12.5334C10.9973 12.7386 11.3578 12.8432 11.7242 12.8326C12.0906 12.8219 12.4444 12.6965 12.7356 12.474C13.0269 12.2515 13.241 11.9431 13.3476 11.5924C13.4543 11.2418 13.4481 10.8664 13.33 10.5194C13.2119 10.1725 12.9878 9.87131 12.6894 9.65849C12.3909 9.44567 12.0332 9.33194 11.6667 9.33333ZM2.33334 11.6667C2.21797 11.6667 2.10519 11.6324 2.00926 11.5684C1.91333 11.5043 1.83857 11.4131 1.79441 11.3066C1.75026 11.2 1.73871 11.0827 1.76122 10.9695C1.78373 10.8564 1.83928 10.7524 1.92087 10.6708C2.00245 10.5893 2.10639 10.5337 2.21954 10.5112C2.3327 10.4887 2.44999 10.5002 2.55658 10.5444C2.66317 10.5885 2.75427 10.6633 2.81837 10.7592C2.88247 10.8552 2.91668 10.968 2.91668 11.0833C2.91668 11.238 2.85522 11.3864 2.74582 11.4958C2.63643 11.6052 2.48805 11.6667 2.33334 11.6667ZM7.00001 2.33333C7.11538 2.33333 7.22817 2.36754 7.32409 2.43164C7.42002 2.49573 7.49479 2.58684 7.53894 2.69343C7.58309 2.80002 7.59464 2.91731 7.57214 3.03046C7.54963 3.14362 7.49407 3.24756 7.41249 3.32914C7.33091 3.41072 7.22697 3.46628 7.11381 3.48878C7.00066 3.51129 6.88337 3.49974 6.77678 3.45559C6.67019 3.41144 6.57908 3.33667 6.51499 3.24074C6.45089 3.14481 6.41668 3.03203 6.41668 2.91666C6.41668 2.76195 6.47814 2.61358 6.58753 2.50418C6.69693 2.39478 6.8453 2.33333 7.00001 2.33333ZM7.00001 9.33333C6.76927 9.33333 6.5437 9.2649 6.35185 9.13671C6.15999 9.00851 6.01045 8.8263 5.92215 8.61312C5.83385 8.39994 5.81075 8.16537 5.85576 7.93905C5.90078 7.71274 6.01189 7.50486 6.17505 7.3417C6.33821 7.17854 6.54609 7.06743 6.77241 7.02241C6.99872 6.97739 7.23329 7.0005 7.44648 7.0888C7.65966 7.1771 7.84186 7.32664 7.97006 7.51849C8.09825 7.71035 8.16668 7.93591 8.16668 8.16666C8.16668 8.47608 8.04376 8.77282 7.82497 8.99162C7.60618 9.21041 7.30943 9.33333 7.00001 9.33333ZM11.6667 11.6667C11.5513 11.6667 11.4385 11.6324 11.3426 11.5684C11.2467 11.5043 11.1719 11.4131 11.1277 11.3066C11.0836 11.2 11.072 11.0827 11.0946 10.9695C11.1171 10.8564 11.1726 10.7524 11.2542 10.6708C11.3358 10.5893 11.4397 10.5337 11.5529 10.5112C11.666 10.4887 11.7833 10.5002 11.8899 10.5444C11.9965 10.5885 12.0876 10.6633 12.1517 10.7592C12.2158 10.8552 12.25 10.968 12.25 11.0833C12.25 11.238 12.1886 11.3864 12.0792 11.4958C11.9698 11.6052 11.8214 11.6667 11.6667 11.6667Z"></path></mask><path d="M10.5 4.08333H11.0833V4.66666C11.0833 4.82137 11.1448 4.96974 11.2542 5.07914C11.3636 5.18853 11.512 5.24999 11.6667 5.24999C11.8214 5.24999 11.9698 5.18853 12.0792 5.07914C12.1886 4.96974 12.25 4.82137 12.25 4.66666V4.08333H12.8333C12.9881 4.08333 13.1364 4.02187 13.2458 3.91247C13.3552 3.80308 13.4167 3.6547 13.4167 3.49999C13.4167 3.34528 13.3552 3.19691 13.2458 3.08751C13.1364 2.97812 12.9881 2.91666 12.8333 2.91666H12.25V2.33333C12.25 2.17862 12.1886 2.03024 12.0792 1.92085C11.9698 1.81145 11.8214 1.74999 11.6667 1.74999C11.512 1.74999 11.3636 1.81145 11.2542 1.92085C11.1448 2.03024 11.0833 2.17862 11.0833 2.33333V2.91666H10.5C10.3453 2.91666 10.1969 2.97812 10.0875 3.08751C9.97814 3.19691 9.91668 3.34528 9.91668 3.49999C9.91668 3.6547 9.97814 3.80308 10.0875 3.91247C10.1969 4.02187 10.3453 4.08333 10.5 4.08333ZM11.6667 9.33333C11.3046 9.33519 10.952 9.44932 10.6575 9.65999L9.22834 8.81416C9.29578 8.60485 9.33118 8.38655 9.33334 8.16666C9.33167 7.65067 9.159 7.14978 8.84236 6.74237C8.52572 6.33495 8.08295 6.04399 7.58334 5.91499V4.56166C7.97255 4.42405 8.30058 4.15329 8.50946 3.79721C8.71834 3.44114 8.79462 3.02269 8.72481 2.61581C8.655 2.20894 8.4436 1.83985 8.12798 1.57376C7.81236 1.30768 7.41283 1.16174 7.00001 1.16174C6.58719 1.16174 6.18767 1.30768 5.87204 1.57376C5.55642 1.83985 5.34502 2.20894 5.27521 2.61581C5.20541 3.02269 5.28168 3.44114 5.49056 3.79721C5.69944 4.15329 6.02747 4.42405 6.41668 4.56166V5.91499C5.91707 6.04399 5.47431 6.33495 5.15766 6.74237C4.84102 7.14978 4.66835 7.65067 4.66668 8.16666C4.66885 8.38655 4.70425 8.60485 4.77168 8.81416L3.34251 9.65999C3.04802 9.44932 2.69543 9.33519 2.33334 9.33333C1.98723 9.33333 1.64888 9.43596 1.3611 9.62825C1.07331 9.82055 0.849009 10.0939 0.716555 10.4136C0.584102 10.7334 0.549446 11.0853 0.61697 11.4247C0.684494 11.7642 0.851166 12.076 1.09591 12.3208C1.34065 12.5655 1.65247 12.7322 1.99194 12.7997C2.3314 12.8672 2.68327 12.8326 3.00304 12.7001C3.32281 12.5677 3.59612 12.3434 3.78842 12.0556C3.98071 11.7678 4.08334 11.4294 4.08334 11.0833C4.08119 10.9253 4.05764 10.7683 4.01334 10.6167L5.35501 9.81749C5.79219 10.2521 6.38358 10.496 7.00001 10.496C7.61644 10.496 8.20783 10.2521 8.64501 9.81749L9.98668 10.6167C9.88894 10.9699 9.90459 11.345 10.0314 11.6889C10.1583 12.0328 10.3899 12.3282 10.6936 12.5334C10.9973 12.7386 11.3578 12.8432 11.7242 12.8326C12.0906 12.8219 12.4444 12.6965 12.7356 12.474C13.0269 12.2515 13.241 11.9431 13.3476 11.5924C13.4543 11.2418 13.4481 10.8664 13.33 10.5194C13.2119 10.1725 12.9878 9.87131 12.6894 9.65849C12.3909 9.44567 12.0332 9.33194 11.6667 9.33333ZM2.33334 11.6667C2.21797 11.6667 2.10519 11.6324 2.00926 11.5684C1.91333 11.5043 1.83857 11.4131 1.79441 11.3066C1.75026 11.2 1.73871 11.0827 1.76122 10.9695C1.78373 10.8564 1.83928 10.7524 1.92087 10.6708C2.00245 10.5893 2.10639 10.5337 2.21954 10.5112C2.3327 10.4887 2.44999 10.5002 2.55658 10.5444C2.66317 10.5885 2.75427 10.6633 2.81837 10.7592C2.88247 10.8552 2.91668 10.968 2.91668 11.0833C2.91668 11.238 2.85522 11.3864 2.74582 11.4958C2.63643 11.6052 2.48805 11.6667 2.33334 11.6667ZM7.00001 2.33333C7.11538 2.33333 7.22817 2.36754 7.32409 2.43164C7.42002 2.49573 7.49479 2.58684 7.53894 2.69343C7.58309 2.80002 7.59464 2.91731 7.57214 3.03046C7.54963 3.14362 7.49407 3.24756 7.41249 3.32914C7.33091 3.41072 7.22697 3.46628 7.11381 3.48878C7.00066 3.51129 6.88337 3.49974 6.77678 3.45559C6.67019 3.41144 6.57908 3.33667 6.51499 3.24074C6.45089 3.14481 6.41668 3.03203 6.41668 2.91666C6.41668 2.76195 6.47814 2.61358 6.58753 2.50418C6.69693 2.39478 6.8453 2.33333 7.00001 2.33333ZM7.00001 9.33333C6.76927 9.33333 6.5437 9.2649 6.35185 9.13671C6.15999 9.00851 6.01045 8.8263 5.92215 8.61312C5.83385 8.39994 5.81075 8.16537 5.85576 7.93905C5.90078 7.71274 6.01189 7.50486 6.17505 7.3417C6.33821 7.17854 6.54609 7.06743 6.77241 7.02241C6.99872 6.97739 7.23329 7.0005 7.44648 7.0888C7.65966 7.1771 7.84186 7.32664 7.97006 7.51849C8.09825 7.71035 8.16668 7.93591 8.16668 8.16666C8.16668 8.47608 8.04376 8.77282 7.82497 8.99162C7.60618 9.21041 7.30943 9.33333 7.00001 9.33333ZM11.6667 11.6667C11.5513 11.6667 11.4385 11.6324 11.3426 11.5684C11.2467 11.5043 11.1719 11.4131 11.1277 11.3066C11.0836 11.2 11.072 11.0827 11.0946 10.9695C11.1171 10.8564 11.1726 10.7524 11.2542 10.6708C11.3358 10.5893 11.4397 10.5337 11.5529 10.5112C11.666 10.4887 11.7833 10.5002 11.8899 10.5444C11.9965 10.5885 12.0876 10.6633 12.1517 10.7592C12.2158 10.8552 12.25 10.968 12.25 11.0833C12.25 11.238 12.1886 11.3864 12.0792 11.4958C11.9698 11.6052 11.8214 11.6667 11.6667 11.6667Z" fill="#2B2B2B" stroke="#2B2B2B" stroke-width="2.45" mask="url(#path-1-inside-1_58_1200)"></path></svg>