<svg class="" width="14" height="14" viewBox="0 0 14 14" fill="none" xmlns="http://www.w3.org/2000/svg"><mask id="path-1-inside-1_58_1203" fill="white"><path d="M11.6141 9.04758H8.97163C8.81692 9.04758 8.66854 9.10904 8.55915 9.21844C8.44975 9.32783 8.38829 9.47621 8.38829 9.63092C8.38829 9.78563 8.44975 9.934 8.55915 10.0434C8.66854 10.1528 8.81692 10.2142 8.97163 10.2142H10.3716C9.72818 10.8867 8.89836 11.3513 7.98881 11.5486C7.07925 11.7458 6.1315 11.6665 5.26733 11.321C4.40316 10.9754 3.66205 10.3794 3.13922 9.60943C2.61639 8.83947 2.33573 7.93077 2.33329 7.00008C2.33329 6.84537 2.27183 6.697 2.16244 6.5876C2.05304 6.47821 1.90467 6.41675 1.74996 6.41675C1.59525 6.41675 1.44688 6.47821 1.33748 6.5876C1.22808 6.697 1.16663 6.84537 1.16663 7.00008C1.16971 8.13921 1.50625 9.25252 2.13473 10.2026C2.7632 11.1527 3.6561 11.898 4.70323 12.3465C5.75035 12.795 6.90589 12.9271 8.02722 12.7265C9.14855 12.5258 10.1866 12.0013 11.0133 11.2176V12.2501C11.0133 12.4048 11.0748 12.5532 11.1841 12.6626C11.2935 12.772 11.4419 12.8334 11.5966 12.8334C11.7513 12.8334 11.8997 12.772 12.0091 12.6626C12.1185 12.5532 12.18 12.4048 12.18 12.2501V9.62508C12.1785 9.47437 12.1188 9.33006 12.0133 9.2224C11.9078 9.11475 11.7648 9.0521 11.6141 9.04758ZM8.74996 7.00008C8.74996 6.65396 8.64732 6.31562 8.45503 6.02783C8.26274 5.74005 7.98943 5.51575 7.66966 5.38329C7.34988 5.25084 6.99802 5.21618 6.65855 5.28371C6.31908 5.35123 6.00726 5.5179 5.76252 5.76264C5.51778 6.00739 5.35111 6.31921 5.28359 6.65867C5.21606 6.99814 5.25072 7.35001 5.38317 7.66978C5.51562 7.98955 5.73993 8.26286 6.02771 8.45515C6.3155 8.64745 6.65384 8.75008 6.99996 8.75008C7.46409 8.75008 7.90921 8.56571 8.2374 8.23752C8.56559 7.90933 8.74996 7.46421 8.74996 7.00008ZM6.41663 7.00008C6.41663 6.88471 6.45084 6.77193 6.51494 6.676C6.57903 6.58007 6.67014 6.5053 6.77673 6.46115C6.88332 6.417 7.00061 6.40545 7.11376 6.42796C7.22692 6.45047 7.33086 6.50602 7.41244 6.5876C7.49402 6.66918 7.54958 6.77312 7.57208 6.88628C7.59459 6.99943 7.58304 7.11672 7.53889 7.22331C7.49474 7.3299 7.41997 7.42101 7.32404 7.48511C7.22811 7.5492 7.11533 7.58342 6.99996 7.58342C6.84525 7.58342 6.69688 7.52196 6.58748 7.41256C6.47808 7.30316 6.41663 7.15479 6.41663 7.00008ZM6.99996 1.16675C5.50452 1.17101 4.06783 1.74945 2.98663 2.78258V1.75008C2.98663 1.59537 2.92517 1.447 2.81577 1.3376C2.70638 1.22821 2.558 1.16675 2.40329 1.16675C2.24858 1.16675 2.10021 1.22821 1.99081 1.3376C1.88142 1.447 1.81996 1.59537 1.81996 1.75008V4.37508C1.81996 4.52979 1.88142 4.67816 1.99081 4.78756C2.10021 4.89696 2.24858 4.95842 2.40329 4.95842H5.02829C5.183 4.95842 5.33138 4.89696 5.44077 4.78756C5.55017 4.67816 5.61163 4.52979 5.61163 4.37508C5.61163 4.22037 5.55017 4.072 5.44077 3.9626C5.33138 3.85321 5.183 3.79175 5.02829 3.79175H3.62829C4.2714 3.11967 5.10068 2.65512 6.00969 2.45773C6.91871 2.26033 7.86597 2.3391 8.7299 2.68392C9.59382 3.02874 10.335 3.62387 10.8583 4.39293C11.3815 5.162 11.663 6.06989 11.6666 7.00008C11.6666 7.15479 11.7281 7.30316 11.8375 7.41256C11.9469 7.52196 12.0953 7.58342 12.25 7.58342C12.4047 7.58342 12.553 7.52196 12.6624 7.41256C12.7718 7.30316 12.8333 7.15479 12.8333 7.00008C12.8333 6.23404 12.6824 5.47549 12.3893 4.76776C12.0961 4.06003 11.6664 3.41697 11.1247 2.87529C10.5831 2.33362 9.94001 1.90394 9.23228 1.61078C8.52455 1.31763 7.766 1.16675 6.99996 1.16675Z"></path></mask><path d="M11.6141 9.04758L11.6508 7.82313L11.6325 7.82258H11.6141V9.04758ZM8.97163 9.04758V7.82258V9.04758ZM8.97163 10.2142V11.4392V10.2142ZM10.3716 10.2142L11.2567 11.0612L13.2393 8.98925H10.3716V10.2142ZM2.33329 7.00008L1.10829 7.00008L1.1083 7.00329L2.33329 7.00008ZM1.16663 7.00008H-0.0583786L-0.0583695 7.0034L1.16663 7.00008ZM11.0133 11.2176H12.2383V8.36822L10.1705 10.3286L11.0133 11.2176ZM12.18 9.62508H13.405L13.4049 9.61338L12.18 9.62508ZM8.74996 7.00008H7.52496H8.74996ZM6.99996 8.75008V9.97508V8.75008ZM2.98663 2.78258H1.76163V5.64746L3.83292 3.66825L2.98663 2.78258ZM2.40329 1.16675V-0.058252V1.16675ZM1.81996 1.75008H0.594959H1.81996ZM1.81996 4.37508H0.594959H1.81996ZM3.62829 3.79175L2.74322 2.94483L0.760613 5.01675H3.62829V3.79175ZM11.6666 7.00008L12.8916 7.00008L12.8916 6.99535L11.6666 7.00008ZM11.6141 7.82258H8.97163V10.2726H11.6141V7.82258ZM8.97163 7.82258C8.49203 7.82258 8.03207 8.0131 7.69294 8.35223L9.42535 10.0846C9.30502 10.205 9.14181 10.2726 8.97163 10.2726V7.82258ZM7.69294 8.35223C7.35381 8.69136 7.16329 9.15131 7.16329 9.63092H9.61329C9.61329 9.8011 9.54569 9.96431 9.42535 10.0846L7.69294 8.35223ZM7.16329 9.63092C7.16329 10.1105 7.35382 10.5705 7.69294 10.9096L9.42535 9.17719C9.54569 9.29752 9.61329 9.46073 9.61329 9.63092H7.16329ZM7.69294 10.9096C8.03207 11.2487 8.49202 11.4392 8.97163 11.4392V8.98925C9.14181 8.98925 9.30502 9.05685 9.42535 9.17719L7.69294 10.9096ZM8.97163 11.4392H10.3716V8.98925H8.97163V11.4392ZM9.48656 9.36732C9.01202 9.86324 8.40003 10.2059 7.72923 10.3514L8.24838 12.7457C9.3967 12.4968 10.4443 11.9101 11.2567 11.0612L9.48656 9.36732ZM7.72923 10.3514C7.05843 10.4968 6.35947 10.4384 5.72214 10.1835L4.81252 12.4584C5.90353 12.8947 7.10007 12.9947 8.24838 12.7457L7.72923 10.3514ZM5.72214 10.1835C5.08482 9.9287 4.53825 9.48912 4.15266 8.92127L2.12578 10.2976C2.78585 11.2697 3.72151 12.0222 4.81252 12.4584L5.72214 10.1835ZM4.15266 8.92127C3.76707 8.35343 3.56009 7.68326 3.55829 6.99688L1.1083 7.00329C1.11137 8.17828 1.46571 9.32552 2.12578 10.2976L4.15266 8.92127ZM3.55829 7.00008C3.55829 6.52048 3.36777 6.06053 3.02864 5.7214L1.29623 7.45381C1.1759 7.33347 1.10829 7.17026 1.10829 7.00008L3.55829 7.00008ZM3.02864 5.7214C2.68952 5.38227 2.22956 5.19175 1.74996 5.19175V7.64175C1.57978 7.64175 1.41657 7.57414 1.29623 7.45381L3.02864 5.7214ZM1.74996 5.19175C1.27036 5.19175 0.810402 5.38227 0.471274 5.7214L2.20369 7.45381C2.08335 7.57414 1.92014 7.64175 1.74996 7.64175V5.19175ZM0.471274 5.7214C0.132146 6.06053 -0.058374 6.52048 -0.058374 7.00008L2.39163 7.00008C2.39163 7.17026 2.32402 7.33347 2.20369 7.45381L0.471274 5.7214ZM-0.0583695 7.0034C-0.054638 8.38175 0.352581 9.72885 1.11303 10.8784L3.15642 9.52675C2.65993 8.77619 2.39406 7.89668 2.39162 6.99677L-0.0583695 7.0034ZM1.11303 10.8784C1.87349 12.028 2.95389 12.9298 4.22092 13.4725L5.18554 11.2204C4.3583 10.8661 3.65292 10.2773 3.15642 9.52675L1.11303 10.8784ZM4.22092 13.4725C5.48794 14.0152 6.88614 14.175 8.24295 13.9323L7.81149 11.5206C6.92564 11.6791 6.01277 11.5747 5.18554 11.2204L4.22092 13.4725ZM8.24295 13.9323C9.59976 13.6896 10.8558 13.0549 11.8561 12.1066L10.1705 10.3286C9.51741 10.9477 8.69734 11.3621 7.81149 11.5206L8.24295 13.9323ZM9.78829 11.2176V12.2501H12.2383V11.2176H9.78829ZM9.78829 12.2501C9.78829 12.7297 9.97882 13.1896 10.3179 13.5288L12.0504 11.7964C12.1707 11.9167 12.2383 12.0799 12.2383 12.2501H9.78829ZM10.3179 13.5288C10.6571 13.8679 11.117 14.0584 11.5966 14.0584V11.6084C11.7668 11.6084 11.93 11.676 12.0504 11.7964L10.3179 13.5288ZM11.5966 14.0584C12.0762 14.0584 12.5362 13.8679 12.8753 13.5288L11.1429 11.7964C11.2632 11.676 11.4264 11.6084 11.5966 11.6084V14.0584ZM12.8753 13.5288C13.2144 13.1896 13.405 12.7297 13.405 12.2501H10.955C10.955 12.0799 11.0226 11.9167 11.1429 11.7964L12.8753 13.5288ZM13.405 12.2501V9.62508H10.955V12.2501H13.405ZM13.4049 9.61338C13.4004 9.14617 13.2153 8.69882 12.8883 8.36508L11.1383 10.0797C11.0223 9.9613 10.9566 9.80257 10.955 9.63678L13.4049 9.61338ZM12.8883 8.36508C12.5613 8.03134 12.1178 7.83713 11.6508 7.82313L11.5774 10.272C11.4117 10.2671 11.2544 10.1981 11.1383 10.0797L12.8883 8.36508ZM9.97496 7.00008C9.97496 6.41168 9.80048 5.8365 9.47358 5.34726L7.43648 6.70841C7.49417 6.79474 7.52496 6.89625 7.52496 7.00008L9.97496 7.00008ZM9.47358 5.34726C9.14668 4.85802 8.68205 4.47671 8.13844 4.25154L7.20087 6.51504C7.2968 6.55478 7.37879 6.62207 7.43648 6.70841L9.47358 5.34726ZM8.13844 4.25154C7.59483 4.02637 6.99666 3.96745 6.41957 4.08225L6.89754 6.48517C6.99938 6.46491 7.10494 6.47531 7.20087 6.51504L8.13844 4.25154ZM6.41957 4.08225C5.84247 4.19704 5.31238 4.48038 4.89632 4.89644L6.62873 6.62885C6.70215 6.55543 6.7957 6.50543 6.89754 6.48517L6.41957 4.08225ZM4.89632 4.89644C4.48026 5.3125 4.19691 5.8426 4.08212 6.41969L6.48505 6.89766C6.5053 6.79582 6.55531 6.70227 6.62873 6.62885L4.89632 4.89644ZM4.08212 6.41969C3.96733 6.99678 4.02625 7.59495 4.25142 8.13857L6.51492 7.20099C6.47519 7.10506 6.46479 6.9995 6.48505 6.89766L4.08212 6.41969ZM4.25142 8.13857C4.47659 8.68218 4.8579 9.14681 5.34714 9.4737L6.70829 7.4366C6.62195 7.37892 6.55466 7.29692 6.51492 7.20099L4.25142 8.13857ZM5.34714 9.4737C5.83637 9.8006 6.41156 9.97508 6.99996 9.97508L6.99996 7.52508C6.89612 7.52508 6.79462 7.49429 6.70829 7.4366L5.34714 9.4737ZM6.99996 9.97508C7.78898 9.97508 8.54568 9.66165 9.1036 9.10372L7.37119 7.37131C7.27273 7.46977 7.1392 7.52508 6.99996 7.52508L6.99996 9.97508ZM9.1036 9.10372C9.66152 8.5458 9.97496 7.7891 9.97496 7.00008H7.52496C7.52496 7.13932 7.46965 7.27286 7.37119 7.37131L9.1036 9.10372ZM7.64163 7.00008C7.64163 7.12699 7.60399 7.25105 7.53349 7.35657L5.49639 5.99543C5.29768 6.2928 5.19163 6.64243 5.19163 7.00008H7.64163ZM7.53349 7.35657C7.46298 7.46209 7.36276 7.54434 7.24551 7.5929L6.30794 5.3294C5.97751 5.46627 5.69509 5.69805 5.49639 5.99543L7.53349 7.35657ZM7.24551 7.5929C7.12827 7.64147 6.99925 7.65418 6.87478 7.62942L7.35275 5.22649C7.00197 5.15672 6.63837 5.19253 6.30794 5.3294L7.24551 7.5929ZM6.87478 7.62942C6.7503 7.60466 6.63597 7.54355 6.54623 7.45381L8.27864 5.7214C8.02575 5.4685 7.70353 5.29627 7.35275 5.22649L6.87478 7.62942ZM6.54623 7.45381C6.4565 7.36407 6.39538 7.24974 6.37062 7.12526L8.77355 6.64729C8.70377 6.29651 8.53154 5.9743 8.27864 5.7214L6.54623 7.45381ZM6.37062 7.12526C6.34586 7.00079 6.35857 6.87178 6.40714 6.75453L8.67064 7.6921C8.80751 7.36167 8.84332 6.99808 8.77355 6.64729L6.37062 7.12526ZM6.40714 6.75453C6.4557 6.63728 6.53795 6.53706 6.64347 6.46656L8.00462 8.50366C8.30199 8.30495 8.53377 8.02253 8.67064 7.6921L6.40714 6.75453ZM6.64347 6.46656C6.74899 6.39605 6.87305 6.35842 6.99996 6.35842V8.80842C7.35761 8.80842 7.70724 8.70236 8.00462 8.50366L6.64347 6.46656ZM6.99996 6.35842C7.17014 6.35842 7.33335 6.42602 7.45369 6.54635L5.72127 8.27877C6.0604 8.61789 6.52036 8.80842 6.99996 8.80842V6.35842ZM7.45369 6.54635C7.57402 6.66669 7.64163 6.8299 7.64163 7.00008H5.19163C5.19163 7.47968 5.38215 7.93964 5.72127 8.27877L7.45369 6.54635ZM6.99647 -0.058247C5.18698 -0.0530858 3.44859 0.64682 2.14033 1.89691L3.83292 3.66825C4.68707 2.85208 5.82205 2.39511 7.00345 2.39174L6.99647 -0.058247ZM4.21163 2.78258V1.75008H1.76163V2.78258H4.21163ZM4.21163 1.75008C4.21163 1.27048 4.02111 0.810526 3.68198 0.471397L1.94957 2.20381C1.82923 2.08347 1.76163 1.92026 1.76163 1.75008H4.21163ZM3.68198 0.471397C3.34285 0.132268 2.88289 -0.058252 2.40329 -0.058252V2.39175C2.23311 2.39175 2.0699 2.32414 1.94957 2.20381L3.68198 0.471397ZM2.40329 -0.058252C1.92369 -0.058252 1.46374 0.132268 1.12461 0.471397L2.85702 2.20381C2.73668 2.32414 2.57347 2.39175 2.40329 2.39175V-0.058252ZM1.12461 0.471397C0.78548 0.810524 0.594959 1.27048 0.594959 1.75008H3.04496C3.04496 1.92026 2.97736 2.08347 2.85702 2.20381L1.12461 0.471397ZM0.594959 1.75008V4.37508H3.04496V1.75008H0.594959ZM0.594959 4.37508C0.594959 4.85468 0.78548 5.31464 1.12461 5.65377L2.85702 3.92135C2.97735 4.04169 3.04496 4.2049 3.04496 4.37508H0.594959ZM1.12461 5.65377C1.46374 5.99289 1.92369 6.18341 2.40329 6.18341V3.73341C2.57347 3.73341 2.73668 3.80102 2.85702 3.92135L1.12461 5.65377ZM2.40329 6.18341H5.02829V3.73341H2.40329V6.18341ZM5.02829 6.18341C5.50789 6.18341 5.96785 5.99289 6.30698 5.65377L4.57457 3.92135C4.6949 3.80102 4.85811 3.73341 5.02829 3.73341V6.18341ZM6.30698 5.65377C6.64611 5.31464 6.83663 4.85468 6.83663 4.37508H4.38663C4.38663 4.2049 4.45423 4.04169 4.57457 3.92135L6.30698 5.65377ZM6.83663 4.37508C6.83663 3.89548 6.64611 3.43552 6.30698 3.0964L4.57457 4.82881C4.45423 4.70847 4.38663 4.54526 4.38663 4.37508H6.83663ZM6.30698 3.0964C5.96785 2.75727 5.50789 2.56675 5.02829 2.56675V5.01675C4.85811 5.01675 4.6949 4.94914 4.57457 4.82881L6.30698 3.0964ZM5.02829 2.56675H3.62829V5.01675H5.02829V2.56675ZM4.51336 4.63867C4.98765 4.14301 5.59925 3.80041 6.26965 3.65483L5.74974 1.26063C4.60211 1.50984 3.55514 2.09633 2.74322 2.94483L4.51336 4.63867ZM6.26965 3.65483C6.94004 3.50925 7.63865 3.56734 8.2758 3.82164L9.184 1.54619C8.09329 1.11086 6.89737 1.01142 5.74974 1.26063L6.26965 3.65483ZM8.2758 3.82164C8.91294 4.07595 9.45955 4.51486 9.84547 5.08204L11.8711 3.70382C11.2104 2.73288 10.2747 1.98153 9.184 1.54619L8.2758 3.82164ZM9.84547 5.08204C10.2314 5.64923 10.439 6.3188 10.4416 7.00481L12.8916 6.99535C12.8871 5.82098 12.5317 4.67477 11.8711 3.70382L9.84547 5.08204ZM10.4416 7.00008C10.4416 7.47968 10.6321 7.93964 10.9713 8.27877L12.7037 6.54635C12.824 6.66669 12.8916 6.8299 12.8916 7.00008H10.4416ZM10.9713 8.27877C11.3104 8.6179 11.7704 8.80842 12.25 8.80842V6.35842C12.4201 6.35842 12.5834 6.42602 12.7037 6.54635L10.9713 8.27877ZM12.25 8.80842C12.7296 8.80842 13.1895 8.6179 13.5286 8.27877L11.7962 6.54635C11.9166 6.42602 12.0798 6.35842 12.25 6.35842V8.80842ZM13.5286 8.27877C13.8678 7.93964 14.0583 7.47968 14.0583 7.00008H11.6083C11.6083 6.8299 11.6759 6.66669 11.7962 6.54635L13.5286 8.27877ZM14.0583 7.00008C14.0583 6.07317 13.8757 5.15533 13.521 4.29897L11.2575 5.23655C11.4891 5.79566 11.6083 6.39491 11.6083 7.00008H14.0583ZM13.521 4.29897C13.1663 3.44262 12.6464 2.66451 11.991 2.00909L10.2585 3.7415C10.6865 4.16942 11.0259 4.67744 11.2575 5.23655L13.521 4.29897ZM11.991 2.00909C11.3355 1.35366 10.5574 0.833746 9.70107 0.479032L8.76349 2.74254C9.3226 2.97413 9.83062 3.31357 10.2585 3.7415L11.991 2.00909ZM9.70107 0.479032C8.84471 0.124317 7.92687 -0.058252 6.99996 -0.058252L6.99996 2.39175C7.60513 2.39175 8.20438 2.51095 8.76349 2.74254L9.70107 0.479032Z" fill="white" mask="url(#path-1-inside-1_58_1203)"></path></svg>