<svg width="8" height="4" viewBox="0 0 8 4" fill="none" xmlns="http://www.w3.org/2000/svg">
<mask id="path-1-inside-1_113_57" fill="white">
<path d="M6.91666 0.349072C6.80736 0.240426 6.65952 0.179443 6.50541 0.179443C6.3513 0.179443 6.20345 0.240426 6.09416 0.349072L3.99999 2.41407L1.93499 0.349072C1.8257 0.240426 1.67785 0.179443 1.52374 0.179443C1.36963 0.179443 1.22179 0.240426 1.11249 0.349072C1.05782 0.403301 1.01442 0.467818 0.984804 0.538903C0.955189 0.609987 0.939941 0.686232 0.939941 0.763239C0.939941 0.840246 0.955189 0.916491 0.984804 0.987576C1.01442 1.05866 1.05782 1.12318 1.11249 1.17741L3.58582 3.65074C3.64005 3.70541 3.70457 3.74881 3.77565 3.77843C3.84674 3.80804 3.92298 3.82329 3.99999 3.82329C4.077 3.82329 4.15324 3.80804 4.22433 3.77843C4.29541 3.74881 4.35993 3.70541 4.41416 3.65074L6.91666 1.17741C6.97133 1.12318 7.01473 1.05866 7.04434 0.987576C7.07396 0.916491 7.08921 0.840246 7.08921 0.763239C7.08921 0.686232 7.07396 0.609987 7.04434 0.538903C7.01473 0.467818 6.97133 0.403301 6.91666 0.349072Z"/>
</mask>
<path d="M6.91666 0.349072L6.05303 1.21785L6.05401 1.21882L6.91666 0.349072ZM6.50541 0.179443V-1.04556V0.179443ZM6.09416 0.349072L6.95427 1.22134L6.95778 1.21785L6.09416 0.349072ZM3.99999 2.41407L3.13378 3.28028L3.99394 4.14043L4.8601 3.28633L3.99999 2.41407ZM1.93499 0.349072L2.8012 -0.517137L2.79862 -0.519707L1.93499 0.349072ZM1.11249 0.349072L1.97514 1.21882L1.97612 1.21785L1.11249 0.349072ZM1.11249 1.17741L1.9787 0.311193L1.97514 0.307656L1.11249 1.17741ZM3.58582 3.65074L4.45558 2.78809L4.45203 2.78453L3.58582 3.65074ZM4.41416 3.65074L3.553 2.77943L3.54441 2.78809L4.41416 3.65074ZM6.91666 1.17741L7.77777 2.04868L7.7793 2.04716L6.91666 1.17741ZM7.78028 -0.519707C7.44147 -0.856511 6.98314 -1.04556 6.50541 -1.04556V1.40444C6.33589 1.40444 6.17326 1.33736 6.05303 1.21785L7.78028 -0.519707ZM6.50541 -1.04556C6.02767 -1.04556 5.56935 -0.856511 5.23053 -0.519707L6.95778 1.21785C6.83756 1.33736 6.67493 1.40444 6.50541 1.40444V-1.04556ZM5.23405 -0.523186L3.13988 1.54181L4.8601 3.28633L6.95427 1.22133L5.23405 -0.523186ZM4.8662 1.54787L2.8012 -0.517133L1.06878 1.21528L3.13378 3.28028L4.8662 1.54787ZM2.79862 -0.519707C2.4598 -0.856511 2.00148 -1.04556 1.52374 -1.04556V1.40444C1.35422 1.40444 1.19159 1.33736 1.07137 1.21785L2.79862 -0.519707ZM1.52374 -1.04556C1.04601 -1.04556 0.58768 -0.856511 0.248865 -0.519707L1.97612 1.21785C1.85589 1.33736 1.69326 1.40444 1.52374 1.40444V-1.04556ZM0.249843 -0.520678C0.0803522 -0.352571 -0.0541781 -0.152567 -0.145985 0.0677963L2.11559 1.01001C2.08302 1.0882 2.03528 1.15917 1.97514 1.21882L0.249843 -0.520678ZM-0.145985 0.0677963C-0.237793 0.28816 -0.285059 0.524519 -0.285059 0.763239H2.16494C2.16494 0.847945 2.14817 0.931814 2.11559 1.01001L-0.145985 0.0677963ZM-0.285059 0.763239C-0.285059 1.00196 -0.237793 1.23832 -0.145985 1.45868L2.11559 0.516469C2.14817 0.594664 2.16494 0.678533 2.16494 0.763239H-0.285059ZM-0.145985 1.45868C-0.0541781 1.67905 0.0803522 1.87905 0.249843 2.04716L1.97514 0.307656C2.03528 0.367306 2.08302 0.438275 2.11559 0.516469L-0.145985 1.45868ZM0.246284 2.04361L2.71962 4.51695L4.45203 2.78453L1.9787 0.3112L0.246284 2.04361ZM2.71607 4.51339C2.88418 4.68288 3.08419 4.81741 3.30455 4.90921L4.24676 2.64764C4.32495 2.68021 4.39592 2.72795 4.45557 2.78809L2.71607 4.51339ZM3.30455 4.90921C3.52491 5.00102 3.76127 5.04829 3.99999 5.04829V2.59829C4.0847 2.59829 4.16857 2.61506 4.24676 2.64764L3.30455 4.90921ZM3.99999 5.04829C4.23871 5.04829 4.47507 5.00102 4.69543 4.90921L3.75322 2.64764C3.83141 2.61506 3.91528 2.59829 3.99999 2.59829V5.04829ZM4.69543 4.90921C4.91579 4.81741 5.1158 4.68288 5.28391 4.51339L3.54441 2.78809C3.60406 2.72795 3.67503 2.68021 3.75322 2.64764L4.69543 4.90921ZM5.27527 4.52201L7.77777 2.04867L6.05554 0.306138L3.55304 2.77947L5.27527 4.52201ZM7.7793 2.04716C7.9488 1.87905 8.08333 1.67904 8.17513 1.45868L5.91355 0.516469C5.94613 0.438277 5.99387 0.367308 6.05401 0.307656L7.7793 2.04716ZM8.17513 1.45868C8.26694 1.23833 8.31421 1.00197 8.31421 0.763239H5.86421C5.86421 0.678524 5.88098 0.594656 5.91355 0.516469L8.17513 1.45868ZM8.31421 0.763239C8.31421 0.52451 8.26694 0.288152 8.17513 0.0677963L5.91355 1.01001C5.88098 0.931822 5.86421 0.847954 5.86421 0.763239H8.31421ZM8.17513 0.0677963C8.08333 -0.152565 7.9488 -0.352569 7.7793 -0.520678L6.05401 1.21882C5.99387 1.15917 5.94613 1.0882 5.91355 1.01001L8.17513 0.0677963Z" fill="white" mask="url(#path-1-inside-1_113_57)"/>
</svg>
