<svg width="14" height="14" viewBox="0 0 14 14" fill="none" xmlns="http://www.w3.org/2000/svg"><mask id="path-1-inside-1_58_730" fill="white"><path d="M10.9143 4.20575C10.8601 4.15108 10.7956 4.10768 10.7245 4.07807C10.6534 4.04845 10.5772 4.0332 10.5002 4.0332C10.4232 4.0332 10.3469 4.04845 10.2758 4.07807C10.2048 4.10768 10.1402 4.15108 10.086 4.20575L5.74017 8.55742L3.91434 6.72575C3.85804 6.67136 3.79157 6.6286 3.71874 6.59989C3.64591 6.57119 3.56813 6.55712 3.48986 6.55847C3.41159 6.55982 3.33435 6.57658 3.26256 6.60779C3.19076 6.63899 3.12581 6.68403 3.07142 6.74034C3.01703 6.79664 2.97427 6.86311 2.94557 6.93594C2.91686 7.00877 2.90279 7.08654 2.90414 7.16481C2.9055 7.24309 2.92225 7.32033 2.95346 7.39212C2.98466 7.46392 3.0297 7.52886 3.08601 7.58325L5.32601 9.82325C5.38024 9.87793 5.44475 9.92132 5.51584 9.95094C5.58692 9.98055 5.66317 9.9958 5.74017 9.9958C5.81718 9.9958 5.89343 9.98055 5.96451 9.95094C6.0356 9.92132 6.10011 9.87793 6.15434 9.82325L10.9143 5.06325C10.9736 5.00863 11.0208 4.94233 11.0531 4.86854C11.0854 4.79475 11.1021 4.71506 11.1021 4.6345C11.1021 4.55394 11.0854 4.47426 11.0531 4.40047C11.0208 4.32667 10.9736 4.26038 10.9143 4.20575Z"></path></mask><path d="M10.9143 4.20575C10.8601 4.15108 10.7956 4.10768 10.7245 4.07807C10.6534 4.04845 10.5772 4.0332 10.5002 4.0332C10.4232 4.0332 10.3469 4.04845 10.2758 4.07807C10.2048 4.10768 10.1402 4.15108 10.086 4.20575L5.74017 8.55742L3.91434 6.72575C3.85804 6.67136 3.79157 6.6286 3.71874 6.59989C3.64591 6.57119 3.56813 6.55712 3.48986 6.55847C3.41159 6.55982 3.33435 6.57658 3.26256 6.60779C3.19076 6.63899 3.12581 6.68403 3.07142 6.74034C3.01703 6.79664 2.97427 6.86311 2.94557 6.93594C2.91686 7.00877 2.90279 7.08654 2.90414 7.16481C2.9055 7.24309 2.92225 7.32033 2.95346 7.39212C2.98466 7.46392 3.0297 7.52886 3.08601 7.58325L5.32601 9.82325C5.38024 9.87793 5.44475 9.92132 5.51584 9.95094C5.58692 9.98055 5.66317 9.9958 5.74017 9.9958C5.81718 9.9958 5.89343 9.98055 5.96451 9.95094C6.0356 9.92132 6.10011 9.87793 6.15434 9.82325L10.9143 5.06325C10.9736 5.00863 11.0208 4.94233 11.0531 4.86854C11.0854 4.79475 11.1021 4.71506 11.1021 4.6345C11.1021 4.55394 11.0854 4.47426 11.0531 4.40047C11.0208 4.32667 10.9736 4.26038 10.9143 4.20575Z" fill="white"></path><path d="M10.086 4.20575L10.9528 5.07138L10.9558 5.0684L10.086 4.20575ZM5.74017 8.55742L4.87259 9.42224L5.73937 10.2918L6.60696 9.42304L5.74017 8.55742ZM3.91434 6.72575L4.78193 5.86093L4.77376 5.85273L4.76543 5.84469L3.91434 6.72575ZM3.08601 7.58325L3.95221 6.71705L3.94472 6.70955L3.9371 6.70219L3.08601 7.58325ZM5.32601 9.82325L6.19577 8.9606L6.19221 8.95705L5.32601 9.82325ZM6.15434 9.82325L5.28813 8.95704L5.28459 8.96061L6.15434 9.82325ZM10.9143 5.06325L10.0837 4.16288L10.0656 4.1796L10.0481 4.19705L10.9143 5.06325ZM11.7841 3.34311C11.616 3.17362 11.416 3.03908 11.1956 2.94728L10.2534 5.20885C10.1752 5.17628 10.1042 5.12854 10.0446 5.0684L11.7841 3.34311ZM11.1956 2.94728C10.9753 2.85547 10.7389 2.8082 10.5002 2.8082V5.2582C10.4155 5.2582 10.3316 5.24143 10.2534 5.20885L11.1956 2.94728ZM10.5002 2.8082C10.2615 2.8082 10.0251 2.85547 9.80473 2.94728L10.7469 5.20885C10.6687 5.24143 10.5849 5.2582 10.5002 5.2582V2.8082ZM9.80473 2.94728C9.58436 3.03908 9.38436 3.17362 9.21626 3.34311L10.9558 5.0684C10.8961 5.12854 10.8251 5.17628 10.7469 5.20885L9.80473 2.94728ZM9.21922 3.34013L4.87339 7.69179L6.60696 9.42304L10.9528 5.07138L9.21922 3.34013ZM6.60776 7.6926L4.78193 5.86093L3.04675 7.59058L4.87259 9.42224L6.60776 7.6926ZM4.76543 5.84469C4.59342 5.67853 4.39037 5.54789 4.16788 5.4602L3.2696 7.73959C3.19277 7.70931 3.12265 7.66419 3.06325 7.60681L4.76543 5.84469ZM4.16788 5.4602C3.94538 5.37252 3.70779 5.32952 3.46867 5.33365L3.51105 7.78329C3.42848 7.78472 3.34643 7.76987 3.2696 7.73959L4.16788 5.4602ZM3.46867 5.33365C3.22956 5.33779 2.99359 5.38898 2.77426 5.48431L3.75085 7.73126C3.67511 7.76418 3.59362 7.78186 3.51105 7.78329L3.46867 5.33365ZM2.77426 5.48431C2.55493 5.57964 2.35652 5.71724 2.19036 5.88924L3.95248 7.59143C3.89511 7.65083 3.82659 7.69834 3.75085 7.73126L2.77426 5.48431ZM2.19036 5.88924C2.02421 6.06125 1.89356 6.2643 1.80587 6.4868L4.08526 7.38508C4.05498 7.46191 4.00986 7.53203 3.95248 7.59143L2.19036 5.88924ZM1.80587 6.4868C1.71819 6.70929 1.67519 6.94689 1.67933 7.186L4.12896 7.14362C4.13039 7.2262 4.11554 7.30824 4.08526 7.38508L1.80587 6.4868ZM1.67933 7.186C1.68346 7.42512 1.73466 7.66108 1.82998 7.88042L4.07693 6.90383C4.10985 6.97957 4.12753 7.06105 4.12896 7.14362L1.67933 7.186ZM1.82998 7.88042C1.92531 8.09975 2.06291 8.29816 2.23492 8.46431L3.9371 6.70219C3.9965 6.75957 4.04401 6.82809 4.07693 6.90383L1.82998 7.88042ZM2.2198 8.44946L4.4598 10.6895L6.19221 8.95705L3.95221 6.71705L2.2198 8.44946ZM4.45626 10.6859C4.62437 10.8554 4.82437 10.9899 5.04473 11.0817L5.98694 8.82015C6.06514 8.85273 6.13611 8.90046 6.19576 8.96061L4.45626 10.6859ZM5.04473 11.0817C5.2651 11.1735 5.50146 11.2208 5.74017 11.2208V8.7708C5.82488 8.7708 5.90875 8.78757 5.98694 8.82015L5.04473 11.0817ZM5.74017 11.2208C5.97889 11.2208 6.21525 11.1735 6.43562 11.0817L5.4934 8.82015C5.5716 8.78757 5.65547 8.7708 5.74017 8.7708V11.2208ZM6.43562 11.0817C6.65598 10.9899 6.85598 10.8554 7.02409 10.6859L5.28459 8.96061C5.34424 8.90046 5.41521 8.85273 5.4934 8.82015L6.43562 11.0817ZM7.02055 10.6895L11.7805 5.92946L10.0481 4.19705L5.28814 8.95705L7.02055 10.6895ZM11.745 5.96363C11.9285 5.79429 12.075 5.58877 12.1752 5.36002L9.93104 4.37706C9.9666 4.29589 10.0186 4.22296 10.0837 4.16288L11.745 5.96363ZM12.1752 5.36002C12.2754 5.13127 12.3271 4.88424 12.3271 4.6345H9.87713C9.87713 4.54588 9.89549 4.45823 9.93104 4.37706L12.1752 5.36002ZM12.3271 4.6345C12.3271 4.38476 12.2754 4.13774 12.1752 3.90899L9.93104 4.89194C9.89549 4.81078 9.87713 4.72312 9.87713 4.6345H12.3271ZM12.1752 3.90899C12.075 3.68023 11.9285 3.47471 11.745 3.30538L10.0837 5.10613C10.0186 5.04604 9.9666 4.97311 9.93104 4.89194L12.1752 3.90899Z" fill="white" mask="url(#path-1-inside-1_58_730)"></path></svg>