<svg width="20" height="20" viewBox="0 0 20 20" fill="none" xmlns="http://www.w3.org/2000/svg">
<path d="M10 0C8.06053 0.00368503 6.16393 0.571311 4.54128 1.63374C2.91862 2.69617 1.63994 4.20754 0.86099 5.98377C0.0820354 7.76 -0.163575 9.72442 0.154075 11.6378C0.471725 13.5511 1.33893 15.3308 2.65005 16.76L2.74005 16.86C3.6745 17.8465 4.80021 18.6322 6.04843 19.1692C7.29666 19.7061 8.64123 19.9831 10 19.9831C11.3589 19.9831 12.7034 19.7061 13.9517 19.1692C15.1999 18.6322 16.3256 17.8465 17.26 16.86L17.35 16.76C18.6612 15.3308 19.5284 13.5511 19.846 11.6378C20.1637 9.72442 19.9181 7.76 19.1391 5.98377C18.3602 4.20754 17.0815 2.69617 15.4588 1.63374C13.8362 0.571311 11.9396 0.00368503 10 0ZM3.61005 14.79C2.56535 13.4116 1.99992 11.7295 1.99992 10C1.99992 8.27047 2.56535 6.58836 3.61005 5.21C4.35143 5.76925 4.95287 6.49297 5.36703 7.32416C5.78119 8.15535 5.99675 9.07134 5.99675 10C5.99675 10.9287 5.78119 11.8446 5.36703 12.6758C4.95287 13.507 4.35143 14.2307 3.61005 14.79ZM10 18C8.17935 18.003 6.41334 17.3779 5.00005 16.23C5.93081 15.4802 6.68173 14.5314 7.19765 13.4533C7.71357 12.3752 7.98137 11.1952 7.98137 10C7.98137 8.80481 7.71357 7.6248 7.19765 6.5467C6.68173 5.46859 5.93081 4.51978 5.00005 3.77C6.41506 2.62532 8.18 2.00082 10 2.00082C11.8201 2.00082 13.585 2.62532 15 3.77C14.0693 4.51978 13.3184 5.46859 12.8024 6.5467C12.2865 7.6248 12.0187 8.80481 12.0187 10C12.0187 11.1952 12.2865 12.3752 12.8024 13.4533C13.3184 14.5314 14.0693 15.4802 15 16.23C13.5868 17.3779 11.8208 18.003 10 18ZM16.39 14.79C15.6487 14.2307 15.0472 13.507 14.6331 12.6758C14.2189 11.8446 14.0033 10.9287 14.0033 10C14.0033 9.07134 14.2189 8.15535 14.6331 7.32416C15.0472 6.49297 15.6487 5.76925 16.39 5.21C17.4347 6.58836 18.0002 8.27047 18.0002 10C18.0002 11.7295 17.4347 13.4116 16.39 14.79Z" fill="white"/>
</svg>
